<?xml version="1.0" encoding="UTF-8"?>
<!DOCTYPE svg PUBLIC "-//W3C//DTD SVG 1.1//EN" "http://www.w3.org/Graphics/SVG/1.1/DTD/svg11.dtd">
<!-- Creator: CorelDRAW 2020 (64 Bit) -->
<svg xmlns="http://www.w3.org/2000/svg" xml:space="preserve" width="60.9606mm" height="60.9606mm" version="1.1" style="shape-rendering:geometricPrecision; text-rendering:geometricPrecision; image-rendering:optimizeQuality; fill-rule:evenodd; clip-rule:evenodd"
viewBox="0 0 1006.57 1006.57"
 xmlns:xlink="http://www.w3.org/1999/xlink"
 xmlns:xodm="http://www.corel.com/coreldraw/odm/2003">
 <defs>
  <style type="text/css">
   <![CDATA[
    .fil0 {fill:#1A5338}
    .fil1 {fill:#FEFEFE;fill-rule:nonzero}
    .fil2 {fill:#8DC74A;fill-rule:nonzero}
    .fil3 {fill:#234634;fill-rule:nonzero}
    .fil4 {fill:#1C6141;fill-rule:nonzero}
   ]]>
  </style>
 </defs>
 <g id="Camada_x0020_1">
  <metadata id="CorelCorpID_0Corel-Layer"/>
  <rect class="fil0" x="0" y="0" width="1006.57" height="1006.57"/>
  <g id="_2202008188464">
   <g>
    <path class="fil1" d="M409.68 451.49c-21.05,11.04 -35.9,31.7 -41.24,54.71 -2.53,10.89 -3.6,23.38 -0.9,34.35 2.61,10.65 10.27,21.75 19.31,27.9 5.51,3.76 10.7,-5.2 5.22,-8.93 -7.23,-4.92 -13.51,-14.95 -14.93,-23.56 -1.59,-9.66 -0.61,-19.98 1.87,-29.38 5.16,-19.62 17.82,-36.67 35.88,-46.15 5.05,-2.65 1.95,-9.58 -2.75,-9.58 -0.79,0 -1.63,0.19 -2.47,0.65zm68.87 -30.46c-19.35,6.35 -32.94,23.28 -43.13,40.1 -26.65,43.94 -36.95,95.23 -44.76,145.33 -4.15,26.65 -4.15,53.53 -1.53,80.36 2.1,21.54 9.16,45.32 29.21,56.77 9.73,5.56 21.28,7.48 32.26,5.25 10.66,-2.17 20.1,-8.88 27.17,-16.94 16.09,-18.33 24.46,-43.04 29.16,-66.6 1.3,-6.52 2.26,-13.09 3.07,-19.68 0.8,-6.59 -9.55,-6.54 -10.35,0 -2.8,22.83 -8.54,46.44 -20.36,66.4 -9.73,16.42 -25.34,31.47 -46.02,26.47 -20.97,-5.07 -30.02,-25.91 -33.02,-45.38 -1.67,-10.83 -2.08,-22.06 -2.47,-33 -0.44,-12.36 -0.15,-24.75 1.04,-37.07 2.23,-23.25 6.9,-46.74 12.17,-69.48 5.21,-22.49 12.09,-44.69 21.91,-65.63 8.01,-17.07 17.64,-34.72 32.06,-47.26 11.55,-10.07 39.81,-21.11 44.67,1.31 2.59,11.91 -3.75,24 -9.42,34.04 -6.22,11 -12.97,21.31 -21.49,30.68 -8.65,9.54 -18.24,18.17 -28.1,26.44 -9.82,8.23 -20.19,15.69 -31.79,21.22 -6.01,2.87 -0.77,11.79 5.22,8.94 11.26,-5.37 21.38,-12.59 31.01,-20.46 9.96,-8.15 19.62,-16.72 28.44,-26.07 8.63,-9.16 16.02,-19.1 22.39,-29.94 6.07,-10.32 12.36,-21.21 14.11,-33.25 1.64,-11.36 -1.12,-23.81 -10.94,-30.72 -4.45,-3.13 -9.97,-4.34 -15.58,-4.34 -5.16,0 -10.39,1.03 -14.94,2.52zm-142.18 212.86l0.02 0c1.26,0 2.37,0.94 2.55,2.23l0 0c0.19,1.42 -0.79,2.72 -2.2,2.93l0 0c-0.34,0.04 -34.2,4.95 -54.85,21.49l0 0c-0.47,0.38 -1.03,0.57 -1.59,0.57l-0.03 0c-0.76,0 -1.51,-0.33 -2.02,-0.97l0 0c-0.89,-1.11 -0.71,-2.74 0.4,-3.64l0 0c21.77,-17.44 55.92,-22.38 57.36,-22.58l0 0c0.12,-0.01 0.24,-0.03 0.36,-0.03zm-23.39 -43.49l0.05 0c1.35,0 2.49,1.03 2.59,2.4l0 0c0.11,1.43 -0.96,2.67 -2.39,2.77l0 0c-0.19,0.01 -19.94,1.73 -54.61,21.37l0 0c-0.4,0.22 -0.83,0.33 -1.24,0.33l-0.02 0c-0.91,0 -1.78,-0.47 -2.26,-1.31l0 0c-0.71,-1.25 -0.27,-2.83 0.98,-3.53l0 0c35.84,-20.3 55.95,-21.97 56.78,-22.03l0 0c0.04,-0 0.09,-0.01 0.13,-0.01zm-3.99 38.45c-0.88,-1.56 -1.4,-4.84 -1.54,-9.81 -0.15,-4.95 0.17,-8.5 0.95,-10.63 0.78,-2.13 2.2,-3.48 4.27,-4.05 2.05,-0.57 3.53,-0.04 4.42,1.57 0.9,1.59 1.4,4.75 1.52,9.51 0.12,4.78 -0.22,8.21 -1.01,10.31 -0.78,2.1 -2.19,3.52 -4.24,4.27 -0.68,0.25 -1.29,0.37 -1.83,0.37 -1.11,0 -1.95,-0.51 -2.54,-1.55zm3.62 -26.57c-1.77,0.47 -3.4,1.24 -4.91,2.3 -1.5,1.07 -2.84,2.42 -4.03,4.06 -1.37,1.89 -2.38,3.94 -3.04,6.17 -0.66,2.22 -0.94,4.54 -0.87,6.93 0.07,2.4 0.51,4.47 1.29,6.17 0.78,1.71 1.87,3 3.28,3.88 1.25,0.77 2.64,1.18 4.16,1.22 1.51,0.04 3.15,-0.28 4.92,-0.95 1.75,-0.66 3.37,-1.57 4.87,-2.71 1.49,-1.14 2.83,-2.49 4.01,-4.08 1.36,-1.83 2.39,-3.75 3.07,-5.79 0.68,-2.03 1,-4.12 0.95,-6.3 -0.04,-2.17 -0.45,-4.07 -1.22,-5.68 -0.76,-1.62 -1.88,-2.94 -3.35,-3.95 -1.25,-0.87 -2.64,-1.42 -4.18,-1.64 -0.49,-0.07 -0.99,-0.1 -1.51,-0.1 -1.1,0 -2.26,0.15 -3.46,0.48zm-33.34 40.93c-0.48,-0.22 -0.75,-1.13 -0.82,-2.73l0 0c-0.27,-6.67 -0.55,-13.35 -0.82,-20.06l0 0c-0.07,-1.55 0.13,-2.65 0.57,-3.28l0 0c0.45,-0.64 1.38,-1.23 2.79,-1.76l0 0c2.82,-1.07 4.86,-0.81 6.08,0.71l0 0c1.24,1.52 1.93,4.75 2.11,9.69l0 0c0.19,4.97 -0.26,8.65 -1.33,11.12l0 0c-1.07,2.45 -3,4.32 -5.78,5.64l0 0c-1.04,0.5 -1.82,0.74 -2.35,0.74l0 0c-0.18,0 -0.34,-0.03 -0.46,-0.09l0 0zm1.24 -29.88c-4.15,1.54 -8.28,3.17 -12.4,4.88l0 0c-0.47,0.19 -0.76,0.65 -0.73,1.16l0 0 0 0.03c0.03,0.72 0.69,1.21 1.4,1.12l0 0c0.63,-0.09 1.07,-0.05 1.33,0.13l0 0c0.42,0.29 0.66,1.15 0.73,2.59l0 0c0.3,6.86 0.6,13.71 0.91,20.55l0 0c0.06,1.44 -0.09,2.47 -0.47,3.13l0 0c-0.32,0.56 -1,1.19 -2.05,1.92l0 0c-0.3,0.21 -0.49,0.55 -0.47,0.94l0 0 0 0.02c0.03,0.78 0.86,1.24 1.56,0.89l0 0c3.81,-2 7.62,-3.9 11.46,-5.75l0 0c4.96,-2.4 8.71,-5.44 11.27,-9.19l0 0c2.54,-3.74 3.75,-7.97 3.58,-12.85l0 0c-0.16,-4.84 -1.62,-8.08 -4.39,-9.77l0 0c-1.35,-0.81 -2.98,-1.23 -4.86,-1.23 -1.99,0 -4.29,0.46 -6.87,1.43zm-1.24 29.88c-0.48,-0.22 -0.75,-1.13 -0.82,-2.73 -0.27,-6.67 -0.55,-13.35 -0.82,-20.06 -0.07,-1.56 0.12,-2.65 0.57,-3.28 0.45,-0.64 1.38,-1.23 2.79,-1.76 2.83,-1.07 4.86,-0.81 6.08,0.71 1.24,1.52 1.93,4.75 2.12,9.7 0.19,4.97 -0.26,8.65 -1.33,11.12 -1.07,2.45 -3,4.33 -5.78,5.64 -1.04,0.5 -1.82,0.74 -2.35,0.74 -0.18,0 -0.34,-0.03 -0.45,-0.09zm1.24 -29.88c-4.14,1.54 -8.28,3.17 -12.4,4.88 -0.47,0.19 -0.76,0.65 -0.73,1.16l0 0.03c0.03,0.72 0.69,1.21 1.4,1.11 0.63,-0.09 1.07,-0.05 1.33,0.13 0.42,0.29 0.66,1.15 0.73,2.59 0.3,6.87 0.61,13.71 0.91,20.55 0.06,1.44 -0.1,2.47 -0.47,3.13 -0.32,0.56 -1,1.19 -2.05,1.92 -0.31,0.21 -0.49,0.55 -0.48,0.93l0 0.02c0.03,0.78 0.86,1.24 1.55,0.89 3.81,-1.99 7.62,-3.9 11.46,-5.75 4.96,-2.4 8.71,-5.44 11.27,-9.19 2.54,-3.74 3.75,-7.97 3.59,-12.85 -0.17,-4.84 -1.63,-8.08 -4.4,-9.77 -1.35,-0.81 -2.98,-1.23 -4.86,-1.23 -1.99,0 -4.29,0.46 -6.87,1.43zm44.36 -417.04c-9.99,5.88 -13.02,18.78 -5.61,27.83l0 0c4.22,5.15 11.51,-2.2 7.31,-7.32l0 0c-2.29,-2.8 -1.29,-6.64 0.79,-9.23l0 0c3.23,-4.03 9.95,-5.38 14.79,-4.73l0 0c9.2,1.25 15.64,10.93 17.4,19.36l0 0c3.78,18.18 -14.47,27.04 -28.91,31.4l0 0c-8.5,2.57 -16.01,6.38 -22.62,12.42l0 0c-8.28,7.57 -13.2,17.29 -16.9,27.74l0 0c-7.69,21.7 -8.72,45.06 -11.85,67.69l0 0c-3.76,27.16 -5.71,54.53 -9.31,81.72l0 0c-0.37,2.79 2.65,5.15 5.17,5.17l0 0c3.1,0.04 4.81,-2.41 5.17,-5.17l0 0c3.67,-27.68 5.64,-55.54 9.54,-83.18l0 0c3.51,-24.93 3.74,-52.66 16.33,-75.22l0 0c5.13,-9.2 13.73,-16.72 23.73,-20.14l0 0c1.42,-0.48 2.84,-0.95 4.25,-1.43l0 0c-0.02,0.08 -0.04,0.16 -0.05,0.25l0 0c-2.24,8.56 -3.52,17.4 -4.72,26.16l0 0c-3.65,26.67 -5.75,53.56 -7.62,80.41l0 0c-1.21,17.53 -2.24,35.07 -3.15,52.63l0 0c-18.8,17.27 -39.8,32.44 -64.95,38.73l0 0c-27.48,6.88 -64.44,3.75 -82.39,-21.07l0 0c-11.96,-16.53 -13.98,-39.35 -10.63,-58.4l0 0c2.65,-15.08 9.79,-29.38 23.71,-36.89l0 0c15.25,-8.22 33.27,-5.08 47.35,3.98l0 0c5.62,3.62 10.8,-5.33 5.23,-8.94l0 0c-13.97,-8.98 -31.33,-12.84 -47.53,-8.18l0 0c-15.97,4.6 -28.12,16.77 -34.38,31.94l0 0c-8.3,20.14 -8.46,46.08 -0.72,66.36l0 0c4.68,12.25 12.4,22.73 23.12,30.37l0 0c13.89,9.9 31.56,13.7 48.36,14.17l0 0c34.36,0.96 65.21,-14.77 90.86,-36.48l0 0c0.42,-0.35 0.83,-0.71 1.24,-1.07l0 0c-0.3,6.46 -0.6,12.94 -0.88,19.41l0 0c-0.89,20.81 -2.13,41.75 -1.75,62.59l0 0c0.36,19.44 2.22,41.31 12.33,58.44l0 0c4,6.79 9.68,12.62 17.12,15.51l0 0c8.01,3.11 16.81,2.07 24.74,-0.76l0 0c6.22,-2.22 3.55,-12.22 -2.75,-9.97l0 0c-6,2.14 -12.62,3.47 -18.75,0.96l0 0c-5.65,-2.32 -9.55,-7.4 -12.36,-12.61l0 0c-7.88,-14.62 -9.44,-32.7 -9.92,-48.99l0 0c-0.59,-20.01 0.65,-40.17 1.47,-60.15l0 0c0.47,-11.4 0.96,-22.83 1.5,-34.25l0 0c5.97,-5.71 11.8,-11.56 17.88,-17.16l0 0c4.8,-4.43 9.22,-7.9 16.4,-9.92l0 0c3.27,-0.91 6.56,-1.17 9.86,-0.31l0 0c1.53,0.39 1.29,0.2 2.71,1.28l0 0c5.3,4.03 10.46,-4.95 5.22,-8.93l0 0c-9.67,-7.35 -25.28,-1.62 -33.91,4.33l0 0c-6.4,4.41 -11.92,10.16 -17.43,15.7l0 0c1.91,-37.1 4.48,-74.2 8.87,-111.03l0 0c1.22,-10.22 2.57,-20.49 4.76,-30.56l0 0c0.75,-3.39 1.62,-6.73 2.75,-10l0 0c0.08,-0.23 0.13,-0.38 0.16,-0.49l0 0c0.03,-0.04 0.06,-0.11 0.11,-0.22l0 0c0.23,-0.44 0.5,-0.89 0.7,-1.34l0 0c0.02,-0.05 0.04,-0.08 0.06,-0.12l0 0c-0.19,0.07 -0.35,0.12 -0.16,0l0 0c0.06,-0.03 0.13,-0.06 0.19,-0.09l0 0c-0.01,0 -0.01,0.02 -0.01,0.03l0 0c0.01,-0.01 0.03,-0.03 0.04,-0.04l0 0c3.08,-1.39 6.07,-3.02 8.89,-5.07l0 0c7.72,-5.59 13.34,-13.29 14.47,-22.93l0 0c1.21,-10.25 -2.88,-20.97 -9.79,-28.49l0 0c-5.65,-6.15 -13.49,-9.54 -21.44,-9.54 -4.81,0 -9.65,1.23 -14.09,3.84l0 0zm-60.2 282.65c-4.82,27.98 -10.38,56.94 -25.08,81.65 -13.3,22.36 -36.11,40.52 -62.27,44.53 -26.81,4.11 -58.04,-5.97 -71.97,-30.51 -9.52,-16.79 -10.11,-42.1 3.49,-56.97 9.4,-10.28 25.42,-14.6 38.88,-11.56 15.27,3.45 22.87,17.9 27.1,31.72 1.95,6.35 11.93,3.64 9.98,-2.75 -4.3,-14.05 -11.6,-28.57 -25.23,-35.62 -13.69,-7.08 -30.84,-5.42 -44.45,0.98 -23.53,11.06 -30.65,39.49 -25.03,63.19 7.12,30.02 35.31,48.53 64.69,52.01 31.31,3.72 61.41,-10.01 81.92,-33.46 24.16,-27.64 31.9,-65.32 37.95,-100.45 0.68,-3.91 -2.66,-6.49 -5.68,-6.49 -2,0 -3.85,1.13 -4.3,3.74zm124.62 -92.79c-5.28,15.02 -13.06,30.77 -29.38,35.79 -6.34,1.96 -3.63,11.95 2.75,9.98 20.09,-6.19 30.06,-24.38 36.61,-43.02 1.34,-3.8 -1.78,-6.3 -4.95,-6.3 -2.07,0 -4.16,1.07 -5.03,3.55zm346.07 -131.46c-5.1,1.53 -4.37,8.23 -0.59,9.86 0,0.09 -0.01,0.16 -0.02,0.19 0.02,-0.1 0.04,-0.17 0.05,-0.18l0 0c0.01,0.03 -0.03,0.25 -0.18,0.79 -0.44,1.61 -0.32,1.42 -1.37,3.03 -5.29,8.19 -18.05,11.22 -27.22,13.03 -6.52,1.29 -3.76,11.27 2.76,9.97 12.85,-2.54 29.87,-7.76 35.15,-21.33 2.04,-5.26 0.82,-15.76 -6.13,-15.76 -0.75,0 -1.56,0.12 -2.45,0.39zm-0.66 8.81c0.01,0.05 0.02,0.11 0.03,0.16 -0.1,-0.1 -0.06,-0.11 -0.03,-0.16zm-47.98 47.65c-7.47,6.8 -10.82,17.54 -13.58,26.92 -4.33,14.75 -11.12,51.93 12.95,52.99 10.62,0.46 19.74,-8.26 26.68,-15.34 7.01,-7.16 12.93,-15.34 18.85,-23.41 3.39,-4.61 6.78,-9.22 10.46,-13.61 1.8,-2.16 3.57,-4.63 6.07,-6.04 0.35,-0.19 1.68,-0.72 1.68,-0.82 0.05,0.2 -0.46,3.08 -0.57,3.53 -1.44,6.8 -3.61,13.51 -5.18,20.29 -1.15,4.94 -2.36,9.85 -3.78,14.7 -0.15,0.27 -0.27,0.55 -0.38,0.85 -0.8,2.28 -1.52,4.58 -2.13,6.93 -1,3.07 0.75,5.24 3.07,6 2.54,0.96 5.82,0.14 6.9,-3.25 0.77,-2.1 1.44,-4.22 2.08,-6.35 2.08,-6.19 4.39,-12.3 7.33,-18.13 3.51,-6.98 8.09,-15.1 14.58,-19.75 0.82,-0.58 2.12,-1.59 3.19,-1.66 0.11,0.36 0.32,1.03 0.36,1.22 0.93,4.63 -0.75,9.71 -1.8,14.2 -2.4,10.18 -5.9,20.03 -9.41,29.87 -2.18,6.32 7.76,8.98 9.97,2.75 4.19,-12.18 9.58,-23.17 16.46,-34.04 2.33,-3.66 4.53,-7.83 7.96,-10.6 1.42,-1.14 5.08,-2.9 6.08,-1.32 1.34,2.12 -0.86,7.39 -1.51,9.36 -1.08,3.31 -2.5,6.48 -3.68,9.75 -4.2,11.63 -7.36,24.58 -5.62,36.98 3.03,21.56 21.74,36.03 42.17,40.13 21.37,4.29 44.74,-2.71 57.17,-21.35 7.63,-11.44 11.7,-26.07 9.63,-39.74 -2.1,-13.88 -9.99,-26.05 -19.07,-36.43 -4.4,-5.02 -11.69,2.32 -7.32,7.31 7.72,8.82 14.58,19.33 16.31,31.16 1.73,11.78 -2.66,25.22 -9.94,34.5 -12.93,16.5 -36.89,19.06 -55.29,11.16 -8.74,-3.76 -16.54,-10.06 -20.68,-18.78 -5.56,-11.67 -2.74,-24.94 0.86,-36.74 3.13,-10.28 16.46,-35.72 -2.9,-38.05 -8.57,-1.02 -14.48,4.88 -19.09,11.36 -0.58,-7.69 -4.35,-15.21 -13.72,-12.57 -4.57,1.28 -8.52,4.42 -11.91,8.18 0.29,-4.45 -0.79,-8.54 -5.2,-10.77 -8.8,-4.44 -16.81,4.88 -21.67,10.88 -5.66,7.01 -10.81,14.39 -16.24,21.57 -5.37,7.09 -11.21,13.96 -18.12,19.62 -3.24,2.65 -6.97,5.97 -11.34,6.11 -4.48,0.14 -5.91,-1.82 -6.89,-5.94 -2.26,-9.59 -0.93,-20.09 1.41,-29.53 2.13,-8.56 4.75,-18.99 10.94,-25.62 2.95,-3.15 6.98,-4.72 10.37,-1.26 3.37,3.43 3.34,9.03 2.4,13.43 -2.01,9.53 -9.4,16.51 -17.8,20.76 -5.95,3 -0.72,11.93 5.22,8.93 8.73,-4.42 16.36,-11.44 20.37,-20.48 3.85,-8.67 4.78,-20.06 -1.22,-27.97 -3.5,-4.63 -8.33,-6.89 -13.26,-6.89 -4.26,0 -8.59,1.69 -12.21,4.98zm-27.94 61.18c-20.36,13.37 -41.55,25.41 -62.99,36.94 -15.06,8.09 -33.49,13.87 -44.43,27.76 -5.88,7.47 -8.79,17.06 -6.39,26.46 2.53,9.91 11.02,16.69 20.78,18.83 20.21,4.42 38.65,-7.3 52.85,-20.46 16.73,-15.53 33.6,-34.31 36.31,-57.88 0.76,-6.59 -9.59,-6.55 -10.35,0 -2.06,18.07 -15.34,32.66 -27.59,45.03 -11.51,11.63 -26.04,24.46 -43.48,23.92 -8.26,-0.25 -16.84,-4.06 -18.69,-12.85 -1.7,-8.01 2.69,-15.38 8.38,-20.62 10.91,-10.05 26.37,-15.08 39.28,-22.03 20.96,-11.3 41.64,-23.09 61.55,-36.16 4.63,-3.03 1.77,-9.79 -2.55,-9.79 -0.86,0 -1.75,0.25 -2.67,0.86zm-52.38 -70.43c-1.4,2.24 -2.68,4.79 -4.57,6.69 -2,2.02 -4.51,2.41 -7.18,3.1 -5.31,1.36 -10.58,2.84 -15.62,5.05 -5.01,2.2 -9.6,5.31 -13.05,9.59 -4,4.93 -5.95,11.25 -8.52,16.98 -2.05,4.54 -4.12,9.28 -5.68,14.13 -0.12,0.16 -0.24,0.33 -0.34,0.5 -3.58,5.78 -6.28,12.04 -9.34,18.1 -1.76,3.47 -4.68,11.2 -8.73,12.7 -7.89,2.94 -2.09,-18.92 -1.69,-21.93 0.54,-4.11 1.6,-10.91 2.1,-16.02 0.56,-5.65 1.41,-11.82 -1.78,-16.86 -3.83,-6.05 -11.35,-6.86 -17.28,-3.38 -5.56,3.27 -8.66,9.46 -11.36,15.05 -0.24,0.49 -0.46,0.99 -0.69,1.48 -0.27,-1.34 -0.6,-2.66 -1.03,-3.93 -3.33,-9.86 -13.62,-12.06 -22.28,-6.82 -5.59,3.39 -9.05,8.59 -11.54,14.37 -3.01,-3.89 -8.01,-6.12 -12.94,-4.49 -6.93,2.29 -10.56,10.39 -13.16,16.57 -3.71,8.87 -6.15,18.2 -9.82,27.1 -3.59,8.72 -7.07,17.49 -10.73,26.19 -0.91,2.17 -1.78,4.34 -3.34,6.14 -0.35,0.41 -1.03,0.84 -1.74,1.27 0.14,-1.65 0.28,-3.39 0.36,-3.81 1.14,-6.29 2.22,-12.59 2.98,-18.94 0.64,-5.35 1.66,-11.58 0.69,-16.94 -1.66,-9.13 -11.18,-10.56 -18.21,-13.94 -0.53,-0.25 -1.05,-0.4 -1.55,-0.48 -0.34,-0.33 -0.74,-0.62 -1.22,-0.88 -6.15,-3.25 -19.22,-11.56 -9.03,-18.31 2.2,-1.46 6.08,-2.76 7.41,0.11 1.26,2.72 0.02,7.12 -0.55,9.89 -1.34,6.5 8.63,9.28 9.98,2.75 1.25,-6.06 2.48,-13.4 -1,-18.99 -4.27,-6.84 -13.73,-6.75 -20.13,-3.24 -6.5,3.56 -11.25,11.04 -9.61,18.59 1.88,8.65 10.43,14.28 17.72,18.12 0.52,0.28 1.03,0.46 1.53,0.56 0.35,0.3 0.75,0.57 1.23,0.81 3.08,1.47 6.36,2.42 9.46,3.81 3.76,1.69 3.93,2.88 3.81,6.86 -0.33,10.93 -2.74,21.43 -4.31,32.19 -0.88,5.98 0.18,14.21 8,14.09 7.02,-0.12 13.05,-6.84 15.73,-12.68 7.96,-17.26 13.99,-35.31 20.57,-53.08 1.18,-3.2 2.51,-6.34 4.23,-9.29 0.61,-1.04 2.57,-4.74 4.11,-4.72 3.29,0.06 2.75,8.05 2.63,10.2 -0.3,5.53 -1.23,11 -2.45,16.42 -0.67,2.73 -1.33,5.46 -1.99,8.18 -2.08,8 -4.37,15.94 -5.78,23.99 -0.76,3.49 1.72,5.89 4.43,6.36 2.34,0.49 4.85,-0.51 5.55,-3.61 3.07,-12.2 5.76,-24.48 8.86,-36.67 1.68,-6.58 3.52,-13.12 5.48,-19.62 1.19,-3.95 2.45,-7.67 4.8,-11.12 2.53,-3.73 5.68,-6.1 10.25,-6.18 0.54,-0.01 0.6,0.11 0.7,0.28 0.43,0.74 0.91,1.61 1.27,2.94 2.09,7.85 0.59,17.06 -0.46,24.96 -0.69,5.17 -1.57,10.3 -2.48,15.44 -1.07,5 -1.94,10.04 -2.61,15.11 -0,0.02 -0,0.03 -0,0.05 0,0 0,0.02 -0,0.03 -0.07,0.45 -0.13,0.89 -0.18,1.34 -0.39,3.1 2.34,4.93 5.08,5.05 2.29,0.36 4.62,-0.68 5.07,-3.67 0.94,-5.98 2.03,-11.93 3.06,-17.9 2.76,-12.38 6.87,-24.55 12.34,-35.81 1.83,-3.77 4.64,-11.95 9.47,-12.84 4.47,-0.83 2.33,9.82 2.05,12.44 -0.53,5.17 -1.26,10.34 -2.04,15.48 -0.21,1.34 -0.42,2.04 -0.9,4.17 -0.68,2.97 -1.28,5.95 -1.61,8.98 -0.59,5.47 0.15,11.48 4.38,15.4 4.11,3.81 10.4,5.13 15.38,2.31 5.32,-3.01 8.64,-9.14 11.39,-14.36 0.25,-0.49 0.5,-0.98 0.75,-1.46 0.02,0.05 0.03,0.11 0.05,0.17 2.12,6.43 7.88,8.99 14.12,5.83 5.46,-2.75 9.95,-9.21 13.57,-13.96 2.31,-3.03 4.44,-6.17 6.48,-9.37 -0.06,1.08 -0.1,2.16 -0.11,3.25 -0.05,3.61 -0.32,7.72 1.27,11.05 3.25,6.81 11.43,8.81 17.62,4.62 6.16,-4.18 7.96,-12.76 11,-19.13 3.52,-7.41 7.37,-14.66 10.82,-22.1 2.86,-6.15 4.76,-13.11 8.75,-18.66 1.56,-2.15 3.47,-4.2 5.81,-5.51 1.66,-0.94 5.52,-2.09 6.8,-1.52 2.17,0.99 4.03,4.95 4.88,7 1.16,2.82 1.71,5.88 1.79,8.92 0.35,13.19 -10.09,30.68 -25,27.06 -0.56,-0.19 -1.12,-0.36 -1.71,-0.5 -2.83,-0.95 -4.93,0.51 -5.82,2.61 -1.11,2.22 -0.77,5.21 1.84,6.85 4.08,2.57 7.79,5.47 11.21,8.88 4.72,4.71 12.04,-2.61 7.32,-7.32 -0.38,-0.37 -0.76,-0.73 -1.14,-1.09 8.34,-2.79 15.55,-9.55 19.57,-17.52 5.96,-11.8 5.75,-27.83 -2.4,-38.54 -2.04,-2.68 -4.29,-5.3 -7.68,-6.11 -3.3,-0.78 -6.91,-0.65 -10.15,0.3 -6.21,1.81 -11.06,6.48 -14.59,11.73 -4.16,6.17 -6.26,13.67 -9.45,20.35 -3.75,7.89 -7.86,15.59 -11.49,23.55 -1.06,2.34 -2.08,4.71 -3.07,7.09 -0.72,1.68 -1.32,4.12 -3.09,5.05 -4.15,2.18 -2.77,-8.01 -2.67,-10.23 0.47,-9.31 2.73,-18.38 6.08,-27.04 0.41,-0.9 0.78,-1.82 1.11,-2.78 1.11,-2.67 -0.09,-4.61 -2.03,-5.54 -2.3,-1.33 -5.7,-1.11 -7.42,1.55 -1.77,2.39 -3.3,4.49 -4.4,7.19 -5.87,9.99 -11.24,20.32 -18.24,29.58 -2,2.65 -4.16,5.18 -6.47,7.57 -1.04,1.07 -2.41,2 -3.52,3.02 -0.22,-0.79 -0.41,-1.58 -0.55,-2.38 -1.21,-7.14 1.17,-14.38 3.79,-20.94 2.61,-6.5 5.3,-13.8 8.83,-19.86 2.77,-4.74 7.66,-7.68 12.65,-9.63 5.45,-2.13 11.23,-3.05 16.76,-4.84 6.55,-2.12 10.01,-7.86 13.44,-13.38 2.45,-3.94 -1.13,-7.66 -4.71,-7.66 -1.58,0 -3.15,0.71 -4.22,2.44zm-192.58 123.21c-0.06,0.08 -0.11,0.16 -0.15,0.23 -0.36,0.76 -0.49,0.5 -0.49,0.25 0,-0.19 0.07,-0.37 0.18,-0.16 -0.34,-0.7 -0.03,-0.64 0.47,-0.31zm257.61 58.26c-4.93,7.1 -9.41,14.52 -13.57,22.13 1.14,-8.55 2.26,-17.12 3.3,-25.69 0.8,-6.59 -9.55,-6.53 -10.35,0 -1.99,16.39 -4.2,32.73 -6.53,49.07 -3.71,4.82 -7.19,9.84 -10.9,14.66 -2.23,2.89 -4.52,5.76 -6.99,8.45 0.15,-1.57 0.35,-3.14 0.54,-4.72 0.89,-7.16 1.97,-14.31 2.71,-21.49 0.81,-7.86 3.77,-30.09 -9.98,-28.56 -6.17,0.68 -10.81,6.65 -14.03,11.39 -1.76,2.56 -3.31,5.26 -4.74,8.02 -0.06,-5.52 -1.49,-12.63 -8.22,-13.08 -10.04,-0.66 -16.45,11.53 -20.5,18.87 -1.39,2.54 -2.74,5.12 -4.06,7.71 0.09,-1.32 0.15,-2.64 0.17,-3.95 0.11,-6.76 -1.54,-17.37 -10.48,-17.06 -6.59,0.23 -10.48,6.95 -13.15,12.12 -9.03,17.54 -16.02,36.08 -26.02,53.13 -1.8,3.05 -3.65,6.17 -5.94,8.88 -0.02,-0.15 -0.04,-0.31 -0.06,-0.5 -0.33,-3.38 -0.35,-6.8 -0.28,-10.18 0.18,-9.04 1.03,-18.09 2.06,-27.08 0.63,-5.51 1.04,-8.88 1.72,-13.43 0.96,-6.48 -7.75,-9.19 -9.99,-2.74 -6.44,18.69 -13.49,38.07 -23.79,55.02 -1.05,1.72 -2.52,3.97 -3.42,5.08 -0.63,0.77 -1.3,1.48 -2.01,2.18 -0.05,0.05 -0.14,0.18 -0.25,0.34 -0.86,-1.71 -1.26,-3.48 -1.42,-5.74 -0.57,-7.98 1.19,-16.19 3.25,-23.85 2.31,-8.56 5.41,-16.95 9.65,-24.75 4.65,-8.55 11.16,-16.23 20.69,-19.35 6.08,-2 12.09,-1.86 18.38,-1.93 6.65,-0.07 6.67,-10.41 0,-10.34 -6.55,0.07 -13.01,0 -19.39,1.77 -9.69,2.68 -17.69,8.8 -23.64,16.8 -6.36,8.51 -10.58,18.8 -13.82,28.85 -2.96,9.16 -5.18,18.84 -5.5,28.49 -0.21,6.43 0.37,15.15 6.35,19.08 4.7,3.1 9.62,1.27 13.35,-2.37 4.13,-4.04 7.12,-9.44 9.8,-14.5 2.84,-5.32 5.37,-10.8 7.78,-16.33 -0.53,9.88 -1,34.02 12.46,27.46 6.2,-3.03 10.35,-11.12 13.61,-16.8 5.26,-9.16 9.76,-18.75 14.22,-28.32 3.84,-8.26 7.43,-16.7 11.71,-24.76 1.24,-2.34 2.08,-3.75 3.33,-5.08 1.24,4.4 0.3,10.68 -0.45,15.24 -1.38,8.44 -3.39,16.84 -5.45,25.13 -1.49,6.05 -2.96,12.27 -5.21,18.09 -2.4,6.26 7.52,8.81 9.98,2.75 6.09,-15 12.7,-30.11 20.02,-44.78 2.2,-4.4 4.47,-8.78 6.98,-13.02 1.83,-3.08 3.32,-5.8 5.5,-7.75 0.47,-0.42 0.99,-0.78 1.53,-1.1 0.05,0.88 0.17,1.8 0.16,2.67 -0.1,6.33 -1.15,12.65 -2.19,18.88 -1.85,11.09 -4.01,22.14 -6.33,33.14 -1.37,6.47 8.33,9.26 9.97,2.75 2.7,-10.68 6.03,-21.23 9.81,-31.56 2.82,-7.7 5.93,-15.33 10,-22.46 1.58,-2.75 3.26,-5.52 5.42,-7.86 0.78,-0.83 1.78,-1.74 2.37,-2.19 0.36,1.66 0.46,4.23 0.42,6.76 -0.1,6.98 -1.03,13.96 -1.93,20.88 -0.83,6.37 -1.89,12.75 -2.31,19.18 -0.3,4.56 -0.06,10.77 5.73,11.56 7.13,0.98 13.44,-8.5 17.22,-13.23 0.79,-0.99 1.58,-2 2.37,-3.06 -3.03,20.07 -6.24,40.11 -9.53,60.13 -1.07,6.52 8.89,9.32 9.97,2.75 4.13,-25.08 8.11,-50.18 11.79,-75.33 5.56,-12.09 11.56,-24.04 18.28,-35.53 3.05,-5.21 6.3,-10.28 9.78,-15.2 2.47,-3.51 5.29,-7.58 9.09,-9.76 1.27,-0.73 2.96,-1.53 4.44,-0.82 -0.18,-0.09 0.4,0.71 0.72,1.58 1.6,4.32 1.22,9.54 0.77,14.02 -1.13,11.11 -5.35,22.52 -10.3,32.51 -4.78,9.64 -11.62,16.98 -22.89,17.69 -6.62,0.42 -6.66,10.77 0,10.35 12.7,-0.8 22.56,-7.17 29.16,-17.96 6.88,-11.23 11.95,-25.47 13.84,-38.43 1.27,-8.68 2.84,-25.25 -7.59,-29.35 -1.81,-0.71 -3.56,-1.03 -5.23,-1.03 -9.52,0 -16.99,10.22 -21.99,17.45zm-50.6 24.11c0.09,-0.05 0.18,-0.08 0.25,-0.13 -0.1,0.07 -0.13,0.12 -0.13,0.16 -0.03,-0 -0.08,-0.03 -0.12,-0.03zm-30.65 5.39c0,0 0.01,0.04 0.03,0.1 -0.04,-0.04 -0.05,-0.07 -0.03,-0.1zm1.71 1.06c0.35,-0.44 0.5,-0.28 0.44,-0.12 -0.03,0.08 -0.11,0.16 -0.24,0.16 -0.06,0 -0.12,-0.01 -0.2,-0.04zm29.5 42.63c0,-0.08 0.09,-0.12 0.23,-0.15 -0.13,0.09 -0.23,0.15 -0.23,0.15zm4.66 2.21l0 -0.18c0.12,0.17 0.19,0.29 0.16,0.29 -0.02,0 -0.07,-0.03 -0.16,-0.11zm-116.03 27.23l0.01 0c0.01,-0.03 0.05,-0.07 0.05,-0.07 0.01,0.01 0.02,0.02 0.02,0.03 -0.02,0.02 -0.02,0.03 -0.04,0.04 0.02,-0 0.02,-0 0.04,-0 -0.02,0.04 -0.18,0.06 -0.32,0.06 -0.25,0 -0.43,-0.05 0.24,-0.06zm3.37 0.61l0 0.01c0.02,0.06 0.03,0.11 0.03,0.11 -0,0 -0.01,-0.03 -0.03,-0.12zm0.02 0.01c0.25,0.2 0.29,0.34 0.24,0.34 -0.04,0 -0.14,-0.11 -0.24,-0.34zm-37.54 5.94c-0.13,0.03 -0.27,0.05 -0.42,0.01 0.01,0.01 0.04,0.01 0.08,0.01 0.07,0 0.19,-0.01 0.34,-0.02zm149.75 51.38c-1.88,9.76 -3.12,20.41 -8.4,29.05 -7.02,11.47 -20.62,11.84 -31.63,5.8 -5.84,-3.2 -11.06,5.73 -5.22,8.93 13.93,7.64 31.96,7.84 42.72,-5.26 8.25,-10.04 10.13,-23.41 12.5,-35.77 0.74,-3.91 -2.56,-6.48 -5.59,-6.48 -2,0 -3.89,1.12 -4.39,3.73zm187.46 -108.93l0.34 0c21.04,0.03 41.73,8 55.32,25.24l0 0c17.79,22.55 19.99,53.33 7.34,78.83l0 0c-14.09,28.42 -44.08,42.18 -75.02,38.21l0 0c-15.61,-2.01 -30.32,-7.96 -45.05,-13.22l0 0c-9.36,-3.32 -18.69,-6.7 -28.12,-9.78l0 0c-21.74,-7.1 -44.04,-12.05 -66.49,-16.34l0 0c-19.46,-3.72 -39,-7.03 -58.54,-10.25l0 0c-21.59,-3.57 -43.23,-6.02 -65.15,-5.84l0 0c-28.73,0.24 -58,4.55 -84.63,15.74l0 0c-6.79,2.85 -13.55,6.27 -19.82,10.26l0 0c-1.72,1.1 -3.36,2.27 -5.01,3.44l0 0c-0.07,0.04 -0.11,0.08 -0.17,0.11l0 0c-0.07,0.05 -0.14,0.12 -0.26,0.21l0 0c-0.13,0.11 -0.26,0.2 -0.39,0.31l0 0c-5.02,4.34 -12.36,-2.95 -7.32,-7.31l0 0c0.75,-0.64 1.55,-1.24 2.34,-1.83l0 0c10.47,-7.93 22.81,-13.51 35.08,-17.99l0 0c26.97,-9.83 56.11,-13.49 84.7,-13.3l0 0c39.9,0.26 79.65,8.49 118.72,15.85l0 0c21.69,4.09 43.32,8.66 64.41,15.26l0 0c20.12,6.3 39.64,14.47 59.79,20.66l0 0c15.83,4.86 32.94,6.45 48.82,0.91l0 0c12.04,-4.19 22.31,-12.69 29.21,-23.34l0 0c13.72,-21.23 14.47,-48.79 0.47,-70.08l0 0c-17.89,-27.2 -55.38,-31.73 -83.29,-17.89l0 0c-12.66,6.28 -22.91,16.9 -25.96,31l0 0c-2.41,11.07 0.14,23.42 9.02,30.96l0 0c7.63,6.46 18.74,8.62 28.3,5.88l0 0c10.65,-3.04 16.82,-12.1 17.42,-22.95l0 0c0.37,-6.64 10.73,-6.66 10.35,0l0 0c-0.37,6.63 -1.94,13.26 -5.62,18.87l0 0c-14.2,21.62 -48.01,19.65 -62.89,-0.07l0 0c-8.16,-10.83 -9.53,-25.77 -5.76,-38.56l0 0c4.46,-15.13 15.96,-27.14 29.93,-34.07l0 0c11.71,-5.81 24.89,-8.89 37.93,-8.92zm-121.34 -100.34c-4.85,4.58 2.48,11.89 7.31,7.31 15.04,-14.19 34.43,-24.93 55.67,-23.92 19.5,0.93 36.44,13.29 45.44,30.26 8.1,15.3 11.58,38.32 -1.91,51.74 -6.92,6.88 -16.83,9.86 -26.28,11.11 -6.35,0.84 -13.2,1.27 -19.5,-0.15 -2.94,-0.67 -6.2,-1.69 -8.19,-4.1 -3.04,-3.7 -1.97,-9.36 0.21,-13.19 1.15,-2.03 2.7,-3.23 4.38,-4.78 0.27,-0.25 0.52,-0.33 0.71,-0.36 0.06,0.44 0.15,1.1 0.15,0.88 0.09,3.25 -0.41,6.32 -1.05,9.51 -1.31,6.5 8.67,9.28 9.97,2.74 1.46,-7.29 3.99,-20.55 -5.88,-23.23 -12.65,-3.44 -21.46,14.3 -20.59,24.41 1.85,21.42 29.17,20.51 44.74,17.92 13.11,-2.18 25.94,-8.14 33.53,-19.45 6.9,-10.28 8.05,-23.25 6.28,-35.21 -3.53,-23.99 -19.73,-45.38 -42.37,-54.33 -7.36,-2.92 -14.86,-4.22 -22.28,-4.22 -22.32,0 -44.12,11.75 -60.34,27.06zm43.46 32.08c-9.96,6.51 -16.12,16.21 -20.56,27.09 -4.37,10.72 -6.91,23.03 -8.41,34.47 -0.8,6.08 -1.33,12.61 2.07,18.05 2.75,4.4 7.28,8.32 12.68,8.5 11.59,0.35 19.69,-13.09 25.35,-21.39 3.76,-5.5 -5.2,-10.69 -8.93,-5.21 -2.66,3.91 -5.33,7.83 -8.6,11.27 -1.94,2.05 -5.64,6.24 -8.8,4.53 -5.14,-2.78 -4.17,-9.82 -3.59,-14.5 0.72,-5.75 2.25,-11.54 3.52,-17.2 2.34,-10.49 5.87,-20.95 12.49,-29.6 2.86,-3.74 7.13,-6.95 11.33,-9.03 2.59,-1.28 8.45,-2.87 10.07,0.34 3,5.94 11.93,0.71 8.93,-5.22 -2.55,-5.04 -7.21,-6.91 -12.25,-6.91 -5.41,0 -11.23,2.15 -15.3,4.8zm-459.49 249.75c6.72,11.75 13.44,23.11 20.16,34.1 -8.32,3.82 -16.63,7.07 -24.94,9.71 15.6,10.18 31.2,18.15 46.81,24.32 -0.69,6.41 -1.37,12.83 -2.05,19.24 77.18,24.58 154.37,4.21 231.55,-16.18 68.41,-18.06 136.82,-36.12 205.23,-22.88 0.01,-0.12 0.03,-0.23 0.04,-0.35 8.21,1.65 16.41,3.74 24.62,6.33 -8.93,4.19 -17.86,8.98 -26.78,14.28 20.59,5.57 41.18,13.96 61.76,26 0.06,-0.44 0.1,-0.88 0.15,-1.32 -6.78,-11.61 -13.55,-22.82 -20.33,-33.66 8.1,-4.02 16.21,-7.5 24.31,-10.42 -12.43,-7.58 -24.87,-13.79 -37.31,-18.84 0.67,-6.32 1.35,-12.64 2.02,-18.97 -77.9,-25.66 -155.81,-5.09 -233.72,15.48 -67.45,17.81 -134.9,35.61 -202.34,23.42 -0.01,0.05 -0.01,0.1 -0.01,0.16 -8.21,-1.54 -16.41,-3.51 -24.61,-5.98 8.93,-4.32 17.85,-9.23 26.78,-14.65 -23.75,-6.13 -47.49,-15.94 -71.24,-30.72 -0.03,0.31 -0.06,0.62 -0.1,0.94zm474.62 68.56c8.94,-5.31 17.86,-10.09 26.79,-14.28 -8.2,-2.59 -16.41,-4.68 -24.62,-6.31 -0.72,6.86 -1.45,13.72 -2.17,20.59zm-403.29 -38.78c-8.93,5.42 -17.86,10.33 -26.78,14.64 8.2,2.48 16.41,4.45 24.61,5.99 0.72,-6.87 1.45,-13.75 2.17,-20.63z"/>
    <path class="fil2" d="M277.53 514.43c-0.7,-0.14 -1.38,0.32 -1.51,1.02 -2.36,12.29 -16.91,75.02 -72.79,102.57 -4.7,2.32 -10.54,4.54 -16.72,6.89 -6.52,2.49 -13.69,5.22 -21.02,8.6 -0.06,0.02 -0.13,0.04 -0.19,0.06 -4.27,1.94 -7.66,2.17 -9.3,0.61 -1.09,-1.03 -1.29,-2.82 -0.53,-4.79 0.02,-0.05 0.04,-0.09 0.06,-0.14 0.68,1.26 1.99,2.14 3.53,2.14 2.23,0 4.02,-1.8 4.02,-4.03 0,-2.22 -1.79,-4.02 -4.02,-4.02 -0.29,0 -0.58,0.03 -0.85,0.09 -2.1,0.23 -4,2.05 -5.15,5.03 -1.15,2.98 -0.72,5.82 1.16,7.59 0.6,0.57 1.57,1.22 3.02,1.52 -8.29,4.42 -16.57,9.83 -24.16,16.87 -4.22,3.9 -7.44,7.98 -9.84,12.47 -1.81,3.38 -2.78,6.82 -2.86,10.23 -0.15,5.86 1.87,10.77 5.54,13.51 1.87,1.39 4.17,2.11 6.56,2.11 1.33,0 2.71,-0.23 4.04,-0.69 0.24,-0.08 0.47,-0.17 0.7,-0.26 2.65,-1.08 4.51,-3.31 5.13,-6.13 0.62,-2.84 -0.2,-5.8 -2.19,-7.91 -0.15,-0.17 -0.34,-0.26 -0.54,-0.32 -0.71,-0.62 -1.61,-1.01 -2.63,-1.01 -2.23,0 -4.03,1.8 -4.03,4.03 0,2.22 1.8,4.02 4.03,4.02 1.17,0 2.21,-0.5 2.94,-1.29 0.07,0.64 0.04,1.29 -0.1,1.94 -0.43,1.98 -1.73,3.54 -3.58,4.29 -0.18,0.07 -0.36,0.15 -0.55,0.2 -2.92,1 -5.99,0.61 -8.22,-1.05 -2.98,-2.23 -4.63,-6.37 -4.5,-11.38 0.08,-3 0.93,-6.05 2.56,-9.08 2.27,-4.22 5.32,-8.08 9.32,-11.78 16.5,-15.3 36.51,-22.9 52.59,-29.02 6.24,-2.37 12.13,-4.62 16.94,-6.99 56.97,-28.09 71.79,-91.89 74.18,-104.41 0.13,-0.7 -0.32,-1.38 -1.03,-1.51zm232.5 71.58c-0.03,0.03 -0.03,0.05 0.03,0l-0.03 0zm0 0c-0.03,0.02 -0.04,0.04 0.03,0l0 0 -0.03 0zm-163.25 -327.48c-0,0.01 -0.01,0.02 -0.01,0.03 0.19,-0.08 0.42,-0.17 0.41,-0.17 -0.02,0 -0.12,0.04 -0.39,0.14zm0.39 -0.14l0 0 0 0 0 0c0.01,0 -0.22,0.09 -0.41,0.17 0,-0.01 0.01,-0.02 0.01,-0.03l0 0c0.26,-0.1 0.37,-0.14 0.39,-0.14zm-0.45 0.16c0.02,-0.01 0.03,-0.01 0.05,-0.02 0,-0 0,-0.01 0.01,-0.02 -0.02,0.02 -0.04,0.03 -0.06,0.04zm0 0c0.02,-0.01 0.04,-0.01 0.05,-0.02l0 0c0,-0.01 0,-0.01 0.01,-0.02 -0.02,0.01 -0.04,0.03 -0.06,0.04zm-64.03 223.93c-0.7,-0.09 -1.35,0.41 -1.44,1.13 -0.66,5.57 -1.68,11.36 -2.67,16.94 -0.52,2.93 -1.05,5.97 -1.53,8.93 -0.12,0.71 0.36,1.37 1.07,1.48 0.07,0.01 0.14,0.02 0.2,0.02 0.62,0 1.17,-0.45 1.28,-1.09 0.48,-2.95 1,-5.98 1.53,-8.89 0.99,-5.63 2.02,-11.45 2.69,-17.09 0.09,-0.71 -0.42,-1.35 -1.13,-1.43zm2.03 -3.74c0.31,-1.74 0.64,-3.47 0.98,-5.2 0.13,-0.7 -0.32,-1.38 -1.02,-1.52 -0.7,-0.14 -1.38,0.31 -1.52,1.02 -0.35,1.74 -0.68,3.49 -0.99,5.24 -0.13,0.7 0.34,1.37 1.04,1.5 0.08,0.01 0.15,0.02 0.23,0.02 0.61,0 1.16,-0.44 1.27,-1.06zm21.43 -164.47c-0.7,-0.16 -1.39,0.29 -1.54,0.99 -7.28,33.4 -15.36,106.91 -16.41,120.31 -0.05,0.71 0.48,1.33 1.19,1.39l0.1 0c0.67,0 1.24,-0.51 1.29,-1.19 1.04,-13.37 9.1,-86.69 16.36,-119.96 0.15,-0.71 -0.29,-1.4 -0.99,-1.54zm2.31 -4.13c1.68,-6.8 3.82,-14.61 7.92,-21.33 0.38,-0.61 0.18,-1.41 -0.43,-1.78 -0.6,-0.37 -1.4,-0.18 -1.78,0.43 -4.29,7.04 -6.49,15.07 -8.22,22.06 -0.18,0.69 0.25,1.4 0.94,1.56 0.11,0.03 0.21,0.04 0.31,0.04 0.58,0 1.11,-0.39 1.26,-0.98zm15.3 -31.43c-1.94,0.68 -3.76,1.85 -5.43,3.45 -0.52,0.5 -0.53,1.32 -0.03,1.83 0.25,0.26 0.59,0.4 0.93,0.4 0.33,0 0.65,-0.12 0.9,-0.36 1.4,-1.35 2.92,-2.32 4.5,-2.88 0.67,-0.24 1.03,-0.98 0.79,-1.66 -0.24,-0.67 -0.99,-1.03 -1.65,-0.79zm-217.96 273.61l-0.01 0c-0.71,0 -1.29,0.59 -1.27,1.3 0.01,1.3 0.06,2.64 0.12,3.98 0.04,0.69 0.61,1.22 1.3,1.22l0.07 0c0.71,-0.04 1.26,-0.65 1.23,-1.36 -0.08,-1.3 -0.12,-2.59 -0.14,-3.86 -0,-0.71 -0.58,-1.27 -1.29,-1.27zm3.94 -20.54c-0.66,-0.28 -1.41,0.02 -1.7,0.68 -1.87,4.41 -2.98,9.46 -3.38,15.44 -0.05,0.71 0.49,1.33 1.2,1.38 0.03,0 0.06,0 0.09,0 0.67,0 1.24,-0.53 1.29,-1.2 0.38,-5.69 1.42,-10.47 3.18,-14.61 0.28,-0.65 -0.03,-1.42 -0.69,-1.69zm27.21 -13.15c6.96,0.84 15.52,4.17 18.66,10.98 0.22,0.48 0.69,0.76 1.18,0.76 0.18,0 0.36,-0.05 0.54,-0.12 0.65,-0.3 0.93,-1.07 0.63,-1.71 -4.52,-9.8 -16.99,-12.03 -20.71,-12.47 -10.48,-1.26 -20.41,2.77 -25.95,10.51 -0.41,0.58 -0.28,1.39 0.3,1.8 0.58,0.41 1.39,0.28 1.8,-0.3 4.98,-6.98 13.99,-10.6 23.53,-9.45zm33.54 -99.55c-0.7,0.15 -1.14,0.83 -1,1.53 1.48,7.08 3.78,13.74 6.82,19.8 0.23,0.45 0.69,0.72 1.16,0.72 0.19,0 0.39,-0.05 0.58,-0.14 0.64,-0.32 0.89,-1.1 0.57,-1.74 -2.95,-5.85 -5.16,-12.3 -6.59,-19.15 -0.15,-0.7 -0.83,-1.15 -1.54,-1.01zm-0.77 -3.39c0.06,0 0.12,-0 0.18,-0.01 0.72,-0.1 1.21,-0.75 1.11,-1.47 -0.76,-5.36 -1.01,-10.64 -0.76,-15.68 0.25,-5.1 2.26,-29.14 17.36,-35.19 -0.02,0.13 -0.04,0.25 -0.04,0.37 0,2.22 1.8,4.02 4.02,4.02 2.22,0 4.03,-1.8 4.03,-4.02 0,-2.22 -1.81,-4.02 -4.03,-4.02 -0.01,0 -0.03,0 -0.05,0 -0.15,-0.03 -0.32,-0.04 -0.49,-0.01 -15.96,2.7 -22.56,21.77 -23.4,38.72 -0.26,5.21 0.01,10.66 0.78,16.18 0.09,0.64 0.64,1.11 1.28,1.11zm168.51 -13.77l0.03 0c0.7,0 1.27,-0.56 1.29,-1.26 1.06,-38.53 3.2,-67.66 6.93,-94.48 0.1,-0.71 -0.39,-1.36 -1.1,-1.47 -0.69,-0.09 -1.36,0.4 -1.46,1.1 -3.75,26.92 -5.9,56.15 -6.96,94.77 -0.02,0.72 0.54,1.31 1.26,1.33zm12.38 -125.56c-0.7,-0.17 -1.39,0.27 -1.55,0.97 -1.59,6.84 -2.98,14.25 -4.28,22.65 -0.1,0.71 0.38,1.37 1.09,1.48 0.06,0.01 0.13,0.01 0.19,0.01 0.63,0 1.18,-0.46 1.28,-1.1 1.28,-8.34 2.67,-15.68 4.24,-22.46 0.16,-0.7 -0.28,-1.39 -0.97,-1.55zm2.26 -3.69c0.5,-1.99 1.11,-3.87 1.77,-5.87l0.37 -1.13c0.23,-0.68 -0.15,-1.41 -0.83,-1.63 -0.68,-0.22 -1.41,0.15 -1.62,0.84l-0.37 1.13c-0.67,2.03 -1.3,3.95 -1.81,6.03 -0.17,0.7 0.25,1.4 0.94,1.57 0.11,0.03 0.21,0.04 0.32,0.04 0.58,0 1.11,-0.39 1.25,-0.98zm-18.06 164.6c-0.7,0 -1.27,0.56 -1.29,1.26 -1.06,43.38 -0.42,117.55 15.73,127.02 0.15,0.09 0.31,0.13 0.48,0.15 0.52,0.25 1.08,0.39 1.7,0.39 2.23,0 4.03,-1.81 4.03,-4.02 0,-2.22 -1.8,-4.02 -4.03,-4.02 -1.68,0 -3.12,1.02 -3.72,2.49 -8.89,-12.36 -13.18,-56.79 -11.6,-121.95 0.01,-0.71 -0.55,-1.31 -1.26,-1.32l-0.03 0zm37.26 -224.67c0.18,0.53 0.68,0.86 1.22,0.86 0.14,0 0.29,-0.02 0.44,-0.08 0.66,-0.24 1.02,-0.98 0.77,-1.65 -0.97,-2.73 -1.99,-5.12 -3.11,-7.3 -0.32,-0.64 -1.1,-0.89 -1.74,-0.57 -0.63,0.32 -0.89,1.11 -0.57,1.74 1.06,2.09 2.04,4.38 2.98,7.01zm-30.88 -25.27c9.99,0.24 18.95,4.88 24.56,12.73 0.25,0.35 0.65,0.54 1.06,0.54 0.25,0 0.52,-0.07 0.75,-0.24 0.58,-0.41 0.71,-1.22 0.3,-1.8 -6.1,-8.51 -15.8,-13.55 -26.6,-13.8 -0.71,-0.02 -1.31,0.55 -1.33,1.26 -0.01,0.71 0.55,1.31 1.26,1.32zm-78.12 31.54c1.55,1.25 3.96,2.36 7.64,2.36 2.96,0 6.75,-0.72 11.56,-2.64 8.88,-3.56 16.29,-8.36 23.35,-15.12 9.35,-8.96 18.63,-14.08 28.37,-15.64 0.71,-0.11 1.19,-0.77 1.07,-1.47 -0.11,-0.71 -0.78,-1.19 -1.48,-1.07 -10.28,1.64 -20,6.98 -29.75,16.32 -6.81,6.52 -13.96,11.16 -22.53,14.58 -7.53,3.01 -13.43,3.25 -16.62,0.68 -1.93,-1.56 -2.79,-4.19 -2.3,-7.04 0.52,-3.02 2.39,-5.52 4.78,-6.37 1.9,-0.68 3.95,-0.68 5.36,0 0.89,0.42 1.51,1.12 1.83,2.06 0.08,0.24 0.13,0.48 0.17,0.72 -0.72,-0.72 -1.73,-1.17 -2.83,-1.17 -2.23,0 -4.02,1.8 -4.02,4.02 0,2.22 1.8,4.02 4.02,4.02 0.43,0 0.83,-0.08 1.21,-0.2 1.32,-0.34 2.45,-1.14 3.23,-2.33 1.09,-1.68 1.34,-3.94 0.67,-5.91 -0.55,-1.59 -1.64,-2.82 -3.16,-3.55 -2.03,-0.98 -4.78,-1.02 -7.35,-0.1 -3.25,1.15 -5.79,4.44 -6.46,8.38 -0.65,3.79 0.56,7.33 3.22,9.48zm142.65 167.12c-0.7,-0.12 -1.38,0.35 -1.49,1.05 -4.76,27.67 -23.62,44.56 -39.13,48.54 -0.69,0.18 -1.11,0.88 -0.93,1.58 0.15,0.58 0.68,0.97 1.25,0.97 0.11,0 0.22,-0.02 0.32,-0.04 16.3,-4.18 36.09,-21.8 41.04,-50.61 0.13,-0.7 -0.35,-1.37 -1.06,-1.49zm31.14 39.57c6.92,-15.68 14.9,-40.97 15.89,-45.49 0.15,-0.7 -0.3,-1.38 -0.99,-1.54 -0.7,-0.16 -1.39,0.29 -1.54,0.99 -0.97,4.45 -8.86,29.45 -15.73,45 -4.03,9.13 -10.89,12.37 -10.99,12.42 -0.65,0.29 -0.94,1.05 -0.64,1.71 0.22,0.48 0.69,0.76 1.18,0.76 0.18,0 0.36,-0.03 0.53,-0.12 0.32,-0.14 7.83,-3.62 12.29,-13.73zm46.43 -67.49c-0.57,-0.42 -1.38,-0.31 -1.81,0.27 -11,14.76 -15.57,53.58 -15.77,55.22 -0.08,0.71 0.43,1.35 1.14,1.43 0.05,0.01 0.1,0.01 0.15,0.01 0.65,0 1.21,-0.48 1.29,-1.14 0.04,-0.4 4.67,-39.76 15.27,-53.98 0.42,-0.57 0.31,-1.39 -0.27,-1.81zm19.77 52.53c0.73,-16.82 9.03,-45.51 15.07,-56.32 0.35,-0.63 0.12,-1.41 -0.5,-1.76 -0.62,-0.35 -1.41,-0.12 -1.76,0.5 -6.17,11.05 -14.65,40.33 -15.39,57.48 -0.03,0.71 0.52,1.32 1.24,1.34 0.02,0 0.03,0 0.05,0 0.69,0 1.27,-0.54 1.29,-1.24zm68.33 -56.62c0.14,0.05 0.27,0.07 0.41,0.07 0.54,0 1.05,-0.35 1.23,-0.89 2.75,-8.36 7.44,-19.76 16.42,-22.11 0.69,-0.18 1.11,-0.89 0.93,-1.58 -0.18,-0.7 -0.89,-1.1 -1.58,-0.93 -10.2,2.68 -15.29,14.87 -18.24,23.81 -0.21,0.68 0.16,1.41 0.83,1.63zm-34.54 51.65c-7.61,2.01 -13.62,-3.13 -13.69,-3.17 -0.54,-0.47 -1.35,-0.42 -1.83,0.12 -0.47,0.54 -0.41,1.35 0.12,1.83 0.24,0.21 4.99,4.29 11.74,4.29 1.36,0 2.81,-0.16 4.32,-0.57 6.48,-1.71 12.29,-13.47 12.54,-13.97 0.32,-0.64 0.05,-1.42 -0.6,-1.73 -0.64,-0.31 -1.41,-0.05 -1.73,0.6 -1.52,3.11 -6.44,11.43 -10.88,12.61zm20.48 -9.57c1.16,0.31 2.38,0.44 3.63,0.44 7.92,0 17.11,-5.83 20.45,-13.61 0.27,-0.66 -0.03,-1.42 -0.68,-1.69 -0.66,-0.29 -1.41,0.02 -1.7,0.67 -3.36,7.82 -13.77,13.6 -21.04,11.69 -0.69,-0.19 -1.4,0.23 -1.57,0.91 -0.19,0.69 0.22,1.41 0.91,1.59zm67.34 -40.99c0.15,0.05 0.3,0.08 0.44,0.08 0.53,0 1.02,-0.32 1.22,-0.85 10.48,-28.45 15.32,-30.96 16.55,-31.06 0.71,-0.05 1.24,-0.67 1.2,-1.39 -0.06,-0.71 -0.67,-1.23 -1.39,-1.19 -1.71,0.13 -6.92,0.51 -18.79,32.74 -0.25,0.67 0.1,1.42 0.76,1.66zm24.16 15.81c0.21,0 0.43,-0.06 0.63,-0.16 0.83,-0.46 20.36,-11.61 20.06,-36.92 -0.22,-18.28 -9.14,-25.88 -9.52,-26.2 -0.55,-0.45 -1.37,-0.38 -1.82,0.18 -0.46,0.54 -0.37,1.36 0.17,1.82 0.09,0.07 8.38,7.14 8.58,24.24 0.23,19.03 -12.15,30.97 -18.73,34.63 -0.62,0.35 -0.85,1.14 -0.51,1.76 0.25,0.42 0.68,0.67 1.14,0.67zm-87.82 82.57c-1.06,3.25 -0.92,6.31 0.37,8.82 0.24,0.44 0.68,0.7 1.15,0.7 0.2,0 0.4,-0.05 0.59,-0.15 0.64,-0.33 0.88,-1.11 0.56,-1.74 -0.98,-1.88 -1.06,-4.24 -0.22,-6.83 1.56,-4.79 7.63,-14.57 30.82,-26.17 27.85,-13.91 43.1,-21.4 43.25,-21.47 0.64,-0.32 0.91,-1.09 0.59,-1.73 -0.32,-0.65 -1.09,-0.91 -1.74,-0.59 -0.14,0.08 -15.4,7.55 -43.25,21.48 -17.82,8.91 -29.23,18.74 -32.14,27.69zm100.48 -62.25c-0.2,-0.69 -0.92,-1.09 -1.6,-0.89 -0.68,0.2 -1.08,0.91 -0.89,1.6 0.02,0.07 2.16,7.69 0.98,15.86 -3.94,27.12 -18.89,45.08 -30.75,55.37 -15.18,13.16 -31.82,19.61 -41.45,21.13 -0.71,0.11 -1.19,0.78 -1.08,1.48 0.1,0.64 0.65,1.09 1.27,1.09 0.07,0 0.13,-0 0.2,-0.02 10.45,-1.64 27.17,-8.21 42.75,-21.73 12.18,-10.57 27.56,-29.04 31.61,-56.95 1.26,-8.7 -0.94,-16.6 -1.04,-16.93zm-53.4 -4.08c0.25,0 0.51,-0.07 0.73,-0.23 4.9,-3.36 9.48,-16.47 9.69,-17.02 0.23,-0.67 -0.12,-1.41 -0.8,-1.65 -0.69,-0.24 -1.41,0.13 -1.65,0.8 -1.24,3.57 -5.23,13.35 -8.71,15.74 -0.59,0.41 -0.74,1.22 -0.33,1.8 0.25,0.36 0.66,0.56 1.07,0.56zm79.41 -40.05c0.07,0.01 0.15,0.02 0.23,0.02 0.61,0 1.16,-0.44 1.26,-1.07 0.87,-4.85 4.04,-18.05 8.34,-20.89 0.64,-0.43 1.23,-0.55 1.85,-0.41 0.7,0.16 1.39,-0.27 1.55,-0.97 0.16,-0.69 -0.28,-1.39 -0.97,-1.55 -1.31,-0.31 -2.62,-0.04 -3.86,0.78 -5.99,3.96 -9.11,20.7 -9.45,22.59 -0.13,0.7 0.35,1.37 1.05,1.5zm-10.5 49.36c1.61,0.91 5.33,1.89 10.16,1.89 8.52,0 20.44,-3.04 30.26,-14.83 15.05,-18.1 22.77,-32.26 22.84,-32.4 0.34,-0.62 0.1,-1.41 -0.52,-1.75 -0.63,-0.34 -1.41,-0.11 -1.76,0.52 -0.07,0.13 -7.67,14.08 -22.55,31.98 -14.33,17.22 -33.13,14.61 -37.17,12.34 -0.62,-0.35 -1.41,-0.13 -1.76,0.49 -0.35,0.62 -0.13,1.41 0.5,1.76zm67.29 -9c-0.69,-0.15 -1.39,0.29 -1.54,0.99 -0.15,0.7 0.3,1.39 1,1.54 0.85,0.19 1.68,0.29 2.47,0.29 5.14,0 8.97,-4.54 13.7,-21.91 3.16,-11.58 9.36,-19.45 9.42,-19.53 0.45,-0.56 0.35,-1.37 -0.2,-1.81 -0.55,-0.44 -1.37,-0.36 -1.81,0.2 -0.27,0.33 -6.6,8.34 -9.91,20.47 -5.81,21.33 -9.7,20.5 -13.13,19.76zm22 4.43c0,0.71 0.58,1.29 1.29,1.29 6.16,0 13.86,-3.87 17.05,-14.72 5.73,-19.52 12.08,-26.44 12.14,-26.5 0.49,-0.52 0.46,-1.34 -0.05,-1.84 -0.53,-0.49 -1.34,-0.46 -1.83,0.05 -0.28,0.29 -6.81,7.33 -12.76,27.55 -3.58,12.25 -12.76,12.87 -14.56,12.87 -0.71,0 -1.29,0.57 -1.29,1.29zm81.44 28.01c0.31,0.01 0.61,0.01 0.91,0.01 14.49,0 26.76,-6.72 31.5,-13.49 5.35,-7.64 7.53,-15.31 6.48,-22.8 -0.86,-6.02 -6,-8.58 -10.65,-8 -4.58,0.57 -8.87,4.27 -8.22,10.24 0.74,6.73 6.36,8.85 9.24,9.05 0.07,0 0.15,-0.01 0.22,-0.02 1.3,0.05 2.62,-0.53 3.43,-1.68 1.29,-1.81 0.89,-4.32 -0.93,-5.61 -1.81,-1.29 -4.32,-0.87 -5.61,0.94 -0.53,0.73 -0.75,1.58 -0.73,2.41 -1.41,-0.96 -2.73,-2.59 -3.04,-5.38 -0.5,-4.51 2.63,-6.96 5.97,-7.38 3.28,-0.41 7.11,1.23 7.76,5.79 0.96,6.82 -1.07,13.87 -6.03,20.96 -4.45,6.36 -16.29,12.64 -30.24,12.38 -15.08,-0.29 -29.5,-10.55 -33.01,-19.57 -7.72,-19.84 4.88,-41.55 5,-41.77 0.37,-0.61 0.17,-1.41 -0.44,-1.77 -0.62,-0.36 -1.41,-0.15 -1.77,0.45 -0.55,0.93 -13.39,22.98 -5.2,44.02 4.29,11.02 20.82,20.95 35.37,21.23zm-366.13 21.3c0.25,0.38 0.66,0.59 1.09,0.59 0.24,0 0.48,-0.07 0.7,-0.2 1.66,-1.07 3.37,-2.06 5.08,-2.93 0.64,-0.32 0.89,-1.09 0.57,-1.73 -0.32,-0.64 -1.1,-0.9 -1.74,-0.57 -1.8,0.91 -3.58,1.95 -5.32,3.06 -0.6,0.39 -0.77,1.19 -0.38,1.79zm-23.43 24.42c0.23,0.16 0.49,0.25 0.75,0.25 0.4,0 0.8,-0.19 1.05,-0.54 5.57,-7.81 11.92,-14.7 18.86,-20.48 0.54,-0.46 0.62,-1.27 0.17,-1.83 -0.46,-0.54 -1.27,-0.62 -1.82,-0.16 -7.11,5.92 -13.6,12.97 -19.3,20.96 -0.41,0.58 -0.28,1.39 0.3,1.8zm-1.94 2.87c-0.6,-0.38 -1.41,-0.22 -1.79,0.38 -2.98,4.62 -5.8,9.65 -8.39,14.94 -9.43,19.25 -14.89,39.68 -18.98,57.11 -0.16,0.7 0.27,1.4 0.97,1.56 0.1,0.03 0.2,0.03 0.29,0.03 0.59,0 1.12,-0.4 1.26,-0.99 4.06,-17.3 9.46,-37.54 18.78,-56.56 2.55,-5.21 5.32,-10.15 8.25,-14.68 0.39,-0.6 0.21,-1.4 -0.38,-1.78zm-35.96 105.74c-0.68,-0.21 -1.4,0.18 -1.61,0.86 -7.92,25.91 -11.88,54.51 -11.75,85.01 0.01,0.72 0.58,1.29 1.29,1.29l0 0c0.72,0 1.3,-0.58 1.3,-1.29 -0.13,-30.25 3.78,-58.59 11.63,-84.25 0.21,-0.69 -0.18,-1.41 -0.86,-1.62zm190.74 63.47c0.71,0.14 1.38,-0.33 1.51,-1.03 0.13,-0.7 -0.33,-1.37 -1.03,-1.51 -61.96,-11.61 -101.97,-8.79 -124.64,-4.38 -24.74,4.82 -34.62,12.37 -35.03,12.69 -0.56,0.43 -0.66,1.24 -0.22,1.81 0.26,0.33 0.64,0.5 1.02,0.5 0.28,0 0.56,-0.09 0.8,-0.27 0.38,-0.31 39.98,-29.85 157.59,-7.8zm116.41 20.7c-7.21,-2.18 -14.36,-4.15 -21.25,-5.85 -0.7,-0.17 -1.38,0.26 -1.56,0.96 -0.17,0.69 0.26,1.39 0.95,1.57 6.84,1.69 13.95,3.63 21.11,5.81 0.13,0.04 0.25,0.05 0.38,0.05 0.55,0 1.07,-0.36 1.24,-0.92 0.2,-0.68 -0.18,-1.4 -0.87,-1.61zm-39.7 -166.36c1.36,-1.09 1.72,-0.9 1.78,-0.85 0.55,0.45 1.37,0.37 1.82,-0.18 0.45,-0.56 0.37,-1.37 -0.18,-1.82 -1.32,-1.07 -3.01,-0.79 -5.04,0.84 -0.55,0.45 -0.64,1.26 -0.19,1.82 0.26,0.32 0.63,0.49 1.01,0.49 0.28,0 0.57,-0.1 0.81,-0.29zm-22.06 39.42c0.16,0.07 0.33,0.1 0.5,0.1 0.51,0 0.99,-0.3 1.19,-0.8l1.03 -2.53c4.11,-10.12 10.31,-25.43 16,-33 0.43,-0.57 0.32,-1.38 -0.25,-1.81 -0.58,-0.42 -1.39,-0.31 -1.81,0.26 -5.9,7.84 -12.19,23.33 -16.34,33.58l-1.02 2.53c-0.28,0.66 0.05,1.41 0.71,1.68zm-10.24 30.63c-1.8,25.86 -3.61,38.07 -8.05,54.46 -0.19,0.69 0.21,1.4 0.9,1.58 0.12,0.03 0.23,0.05 0.34,0.05 0.57,0 1.09,-0.38 1.24,-0.95 4.5,-16.58 6.33,-28.91 8.14,-54.96 0.05,-0.71 -0.49,-1.33 -1.2,-1.38 -0.73,-0.05 -1.33,0.49 -1.38,1.2zm259.41 -5.52c-3.05,-10.65 -8.6,-25.9 -21.42,-35.24 -8.03,-5.84 -16.49,-7.47 -23.2,-4.48 -5.26,2.36 -8.76,7.31 -9.38,13.28 -0.87,8.39 5,14.84 10.8,17.28 5.3,2.23 10.35,1.29 13.51,-2.52 0.08,-0.08 0.14,-0.19 0.18,-0.29 0.03,-0.04 0.07,-0.07 0.1,-0.11 1.29,-1.81 0.87,-4.32 -0.93,-5.6 -1.82,-1.3 -4.33,-0.88 -5.62,0.93 -1.29,1.81 -0.87,4.32 0.94,5.62 0.05,0.02 0.09,0.05 0.14,0.07 -2.13,0.77 -4.66,0.62 -7.3,-0.49 -5.11,-2.15 -9.93,-7.86 -9.23,-14.62 0.51,-5.04 3.45,-9.22 7.85,-11.18 5.86,-2.61 13.37,-1.07 20.63,4.21 12.17,8.86 17.5,23.57 20.46,33.86 5.31,18.53 4.25,37.04 -3.05,53.55 -6.49,14.67 -18.01,28.81 -32.44,39.85 -0.57,0.43 -0.67,1.24 -0.24,1.8 0.25,0.34 0.64,0.51 1.03,0.51 0.27,0 0.55,-0.08 0.79,-0.27 14.77,-11.29 26.57,-25.78 33.23,-40.84 7.55,-17.07 8.65,-36.2 3.16,-55.31zm-443.65 54.13c1.29,0.5 3.78,1.26 6.82,1.26 2.27,0 4.85,-0.42 7.46,-1.7 5.93,-2.95 10.42,-9.42 13.32,-19.29 0.2,-0.69 -0.19,-1.41 -0.88,-1.61 -0.68,-0.2 -1.4,0.19 -1.61,0.88 -2.68,9.14 -6.72,15.09 -11.98,17.69 -5.18,2.57 -10.26,1.1 -12.2,0.36 -0.66,-0.26 -1.41,0.07 -1.67,0.74 -0.26,0.67 0.08,1.41 0.74,1.67zm39.65 -5.86l0.07 0c7.68,-0.39 22.59,-12.63 30.62,-34.61 6.68,-18.31 8.09,-22.48 8.12,-22.52 0.23,-0.69 -0.13,-1.41 -0.81,-1.64 -0.69,-0.22 -1.42,0.14 -1.65,0.81 -0.01,0.03 -1.42,4.19 -8.1,22.47 -7.54,20.65 -21.53,32.57 -28.32,32.9 -0.71,0.03 -1.25,0.65 -1.22,1.36 0.04,0.69 0.6,1.23 1.29,1.23zm39.19 -10.51c6.26,0 17.2,-11.25 21.92,-25.77 4.5,-13.85 8.27,-26.25 8.31,-26.37 0.21,-0.68 -0.18,-1.41 -0.86,-1.62 -0.68,-0.2 -1.41,0.18 -1.61,0.87 -0.04,0.12 -3.82,12.5 -8.3,26.33 -4.53,13.9 -14.76,23.98 -19.46,23.98 -0.71,0 -1.29,0.58 -1.29,1.3 0,0.71 0.58,1.28 1.29,1.28zm65.29 -66.67c-0.54,-0.47 -1.36,-0.39 -1.82,0.16 -5.77,6.85 -11.53,21.87 -14.36,37.36 -1.09,5.99 -3.14,10.03 -6.1,11.98 -2.16,1.42 -4.8,1.75 -8.08,0.99 -0.7,-0.16 -1.39,0.28 -1.55,0.97 -0.16,0.7 0.27,1.4 0.97,1.56 1.32,0.3 2.58,0.46 3.77,0.46 2.37,0 4.48,-0.6 6.31,-1.8 3.57,-2.35 6,-6.95 7.22,-13.68 2.75,-15.08 8.29,-29.61 13.8,-36.15 0.46,-0.54 0.39,-1.36 -0.16,-1.82zm7.1 50.03c1.42,0 2.97,-0.39 4.58,-1.4 5.79,-3.61 10.37,-10.95 10.56,-11.25 0.37,-0.61 0.18,-1.41 -0.42,-1.78 -0.6,-0.37 -1.41,-0.19 -1.78,0.42 -0.04,0.07 -4.46,7.14 -9.73,10.44 -4.52,2.82 -7.95,-1.27 -8.1,-1.47 -0.45,-0.55 -1.26,-0.65 -1.82,-0.2 -0.55,0.45 -0.64,1.26 -0.2,1.82 1.17,1.47 3.73,3.43 6.92,3.43zm47.09 -20.45c0.03,0.01 0.64,0.08 1.63,0.08 4.98,0 20.04,-1.83 27.41,-22.97 0.23,-0.68 -0.11,-1.41 -0.79,-1.65 -0.67,-0.24 -1.41,0.13 -1.65,0.81 -8.14,23.32 -25.49,21.27 -26.24,21.18 -0.7,-0.1 -1.36,0.39 -1.46,1.1 -0.1,0.71 0.4,1.36 1.1,1.46zm159.94 -61.6c-0.6,-0.37 -1.41,-0.18 -1.77,0.44 -4.44,7.34 -8.92,13.04 -13.7,17.41 -0.53,0.48 -0.57,1.3 -0.09,1.82 0.25,0.29 0.61,0.43 0.95,0.43 0.32,0 0.63,-0.11 0.88,-0.34 4.97,-4.53 9.6,-10.42 14.16,-17.98 0.37,-0.61 0.18,-1.4 -0.44,-1.77zm-19.75 21.32c-15.23,9.55 -34.07,13.13 -54.49,10.34 -0.62,-0.07 -1.19,0.27 -1.4,0.85 -6.72,18.82 -15.3,35.59 -32.33,30.77 -0.68,-0.19 -1.4,0.21 -1.6,0.89 -0.19,0.69 0.21,1.41 0.89,1.6 2.24,0.63 4.34,0.92 6.32,0.92 16.76,0 24.69,-20.85 28.81,-32.33 20.62,2.61 39.69,-1.13 55.17,-10.84 0.61,-0.38 0.79,-1.18 0.41,-1.78 -0.39,-0.61 -1.18,-0.79 -1.78,-0.41zm-51.16 -93.84c-12.22,0.15 -19.96,6.17 -23.13,11.76 -2.53,4.47 -2.67,9.31 -0.37,13.28 2.9,4.99 6.58,5.33 8.53,5.09 3.2,-0.41 6.18,-2.98 7.06,-6.12 0.61,-2.16 0.14,-4.21 -1.28,-5.8 -0.23,-0.3 -0.5,-0.58 -0.82,-0.82 -0.07,-0.05 -0.14,-0.08 -0.22,-0.12 -0.01,-0 -0.02,-0.02 -0.04,-0.02 -1.78,-1.08 -4.12,-0.64 -5.36,1.08 -1.29,1.81 -0.89,4.32 0.94,5.62 1.16,0.82 2.59,0.94 3.83,0.45 -0.91,1.65 -2.64,2.94 -4.44,3.18 -2.29,0.29 -4.34,-1.04 -5.96,-3.82 -1.83,-3.15 -1.69,-7.05 0.38,-10.71 2.81,-4.96 9.79,-10.31 20.91,-10.44l0.18 0c11.07,0 28.06,12.88 36.47,27.69 9.25,16.28 5.89,30.04 5.48,31.55 -0.19,0.69 0.21,1.4 0.9,1.59 0.11,0.03 0.22,0.05 0.34,0.05 0.57,0 1.09,-0.38 1.24,-0.96 0.73,-2.65 3.84,-16.7 -5.72,-33.52 -9.01,-15.87 -26.83,-29.15 -38.93,-28.99zm4.48 80.18c0.15,0.05 0.29,0.07 0.44,0.07 0.53,0 1.03,-0.33 1.22,-0.86 3.96,-11.16 0.48,-20.45 0.33,-20.84 -0.26,-0.67 -1.01,-0.99 -1.67,-0.74 -0.67,0.26 -1,1.01 -0.75,1.67 0.03,0.09 3.28,8.77 -0.35,19.05 -0.25,0.68 0.1,1.41 0.78,1.65zm-260.98 26.98c-0.53,-0.47 -1.36,-0.4 -1.82,0.14 -0.52,0.61 -12.78,15.21 -16.24,39.02 -0.1,0.71 0.38,1.36 1.08,1.47 0.07,0.01 0.13,0.01 0.19,0.01 0.63,0 1.19,-0.46 1.28,-1.11 3.35,-23.03 15.53,-37.57 15.65,-37.71 0.46,-0.55 0.39,-1.36 -0.15,-1.81zm16.41 35.89c0.72,0 1.29,-0.58 1.29,-1.28 0,-8.4 5.95,-36.95 6.01,-37.24 0.14,-0.7 -0.3,-1.38 -1.01,-1.53 -0.69,-0.16 -1.38,0.3 -1.53,1 -0.25,1.18 -6.06,29.11 -6.06,37.77 0,0.71 0.57,1.28 1.29,1.28zm293.45 -137.46c-1.77,-1.06 -3.44,-2.19 -5.02,-3.38 -0.57,-0.43 -1.38,-0.31 -1.8,0.25 -0.44,0.56 -0.32,1.38 0.25,1.81 1.64,1.24 3.4,2.42 5.24,3.53 0.2,0.13 0.43,0.19 0.66,0.19 0.43,0 0.86,-0.22 1.11,-0.62 0.37,-0.61 0.17,-1.41 -0.44,-1.78zm28.57 9.78c-6.91,-0.99 -13.64,-3.45 -20.13,-5.83 -1.21,-0.44 -2.41,-0.88 -3.61,-1.32 -0.68,-0.24 -1.42,0.11 -1.66,0.78 -0.25,0.67 0.1,1.41 0.78,1.66 1.2,0.43 2.4,0.86 3.6,1.31 6.62,2.42 13.48,4.94 20.65,5.96 0.07,0.01 0.13,0.01 0.18,0.01 0.64,0 1.2,-0.46 1.29,-1.11 0.1,-0.7 -0.4,-1.36 -1.1,-1.46zm50.79 1.07c10.86,2.15 17.99,8.62 19.54,17.72 1.42,8.28 -1.83,19.01 -10.63,22.55 -4.92,1.99 -12.08,1.86 -15.66,-2.28 -2.8,-3.24 -2.51,-7.73 0.71,-11.18 2.73,-2.92 6.79,-4.06 10.11,-2.84 1.7,0.63 2.72,1.68 3.04,3.11 0.22,1.02 0.07,2.22 -0.37,3.44 -0.21,-0.24 -0.44,-0.47 -0.71,-0.66 -1.81,-1.29 -4.32,-0.87 -5.61,0.93 -1.29,1.8 -0.87,4.32 0.94,5.62 1.81,1.29 4.31,0.88 5.6,-0.94 0.19,-0.26 0.33,-0.54 0.45,-0.83 1.91,-2.56 2.77,-5.59 2.23,-8.11 -0.36,-1.62 -1.46,-3.8 -4.68,-4.98 -4.28,-1.58 -9.46,-0.17 -12.89,3.5 -4.09,4.39 -4.42,10.41 -0.77,14.63 2.69,3.14 6.84,4.44 11.01,4.44 2.64,0 5.28,-0.52 7.56,-1.45 10.06,-4.05 13.8,-16.1 12.21,-25.38 -1.74,-10.22 -9.61,-17.44 -21.58,-19.82 -7.48,-1.49 -15.67,-1.02 -22.75,-0.46 -3.03,0.24 -6.12,0.67 -9.1,1.09 -4.48,0.62 -9.11,1.27 -13.61,1.27l-0 0c-0.72,0 -1.29,0.57 -1.29,1.29 0,0.71 0.57,1.29 1.29,1.29l0 0c4.68,0 9.4,-0.65 13.96,-1.29 2.95,-0.41 6,-0.83 8.96,-1.07 6.91,-0.54 14.89,-1.01 22.04,0.41zm-582.61 129.71c0,-8.35 -2.96,-11.83 -5.44,-13.29 -2.59,-1.51 -5.85,-1.46 -8.72,0.14 -2.84,1.59 -4.49,5.31 -3.93,8.83 0.52,3.22 2.78,5.52 6.04,6.16l0.01 -0.04c0.28,0.06 0.56,0.1 0.86,0.1 2.23,0 4.03,-1.8 4.03,-4.02 0,-2.22 -1.8,-4.03 -4.03,-4.03 -1.85,0 -3.39,1.26 -3.86,2.96 -0.28,-0.56 -0.42,-1.1 -0.5,-1.55 -0.39,-2.45 0.75,-5.09 2.64,-6.16 2.06,-1.15 4.36,-1.21 6.15,-0.17 2.68,1.58 4.16,5.5 4.16,11.06 0,10.75 -14.03,17.24 -27.6,23.51 -0.33,0.16 -0.66,0.31 -0.99,0.46 -0.09,-1.15 -0.65,-2.26 -1.66,-2.98 -1.8,-1.29 -4.32,-0.87 -5.61,0.94 -1.29,1.81 -0.87,4.32 0.93,5.61 1.27,0.89 2.87,0.95 4.17,0.29 1.39,-0.67 2.82,-1.32 4.24,-1.98 14.31,-6.62 29.1,-13.46 29.1,-25.86zm99.69 -233.75c2.09,0.5 3.65,1.73 4.77,3.76 3.26,5.92 1.77,17.26 -1.15,25.89 -0.23,0.68 0.14,1.41 0.81,1.63 0.14,0.05 0.27,0.07 0.41,0.07 0.54,0 1.04,-0.34 1.23,-0.88 2.88,-8.49 4.86,-20.91 0.97,-27.97 -1.46,-2.67 -3.63,-4.36 -6.43,-5.03 -0.7,-0.17 -1.39,0.26 -1.56,0.95 -0.17,0.69 0.26,1.39 0.95,1.56zm39 -5.27c0.91,0 1.73,-0.11 2.38,-0.28 0.12,-0.03 0.23,-0.08 0.33,-0.14 1.51,-0.58 2.59,-2.04 2.59,-3.75 0,-2.22 -1.8,-4.02 -4.02,-4.02 -2.22,0 -4.02,1.8 -4.02,4.02 0,0.42 0.08,0.81 0.2,1.2 -1.78,-0.57 -3.7,-1.91 -4.89,-4.91 -1.17,-2.97 -0.14,-6.18 2.7,-8.36 3.79,-2.93 11.23,-4.12 19.72,2.13 1.98,1.61 4.12,3.03 6.39,4.19 9.62,4.97 22.55,4.23 35.06,3.5 11.17,-0.64 21.71,-1.25 28.75,2.26 6.12,3.06 8.75,11.39 7.41,23.47 -1.34,12.04 -4.48,25.54 -4.51,25.68 -0.16,0.7 0.27,1.4 0.96,1.55 0.1,0.03 0.2,0.04 0.29,0.04 0.59,0 1.13,-0.41 1.26,-1.01 0.03,-0.14 3.21,-13.79 4.57,-25.98 1.47,-13.24 -1.67,-22.5 -8.83,-26.08 -7.65,-3.81 -18.54,-3.18 -30.06,-2.52 -12.16,0.7 -24.73,1.43 -33.73,-3.21 -2.14,-1.1 -4.13,-2.44 -6,-3.95 -0.01,-0.01 -0.02,-0.01 -0.03,-0.03 -0.01,-0.01 -0.01,-0.01 -0.01,-0.02 -7.27,-5.91 -12.29,-14.62 -13.32,-23.7 -0.85,-7.51 0.63,-18.58 12.51,-28.64 13.57,-11.48 29.44,-9.04 38.9,-3.45 9.68,5.71 14.52,15.09 12.64,24.47 -2.34,11.69 -11.12,15.89 -18.54,15.92 -4.13,0.02 -7.77,-1.21 -10.01,-3.16 1.81,-0.39 3.18,-2 3.18,-3.93 0,-2.22 -1.8,-4.03 -4.02,-4.03 -2.22,0 -4.02,1.8 -4.02,4.03 0,0.21 0.03,0.41 0.06,0.6 0,0.09 0,0.19 0.03,0.29 1.07,5.11 7.24,8.8 14.7,8.8l0.1 0c8.44,-0.04 18.41,-4.79 21.06,-18 2.11,-10.5 -3.21,-20.92 -13.86,-27.21 -10.19,-6.02 -27.28,-8.66 -41.89,3.71 -9.95,8.42 -14.72,19.4 -13.41,30.91 0.79,6.99 3.79,13.79 8.29,19.41 -6.47,-2.11 -11.97,-0.62 -15.24,1.91 -3.74,2.88 -5.12,7.34 -3.53,11.37 2.17,5.49 6.58,6.93 9.84,6.93zm217.29 153.97c0.13,0.03 0.26,0.05 0.37,0.05 0.55,0 1.07,-0.36 1.24,-0.92 2.15,-7.07 0.64,-12.9 -4.04,-15.58 -0.62,-0.35 -1.41,-0.13 -1.78,0.48 -0.35,0.62 -0.13,1.42 0.48,1.77 3.56,2.05 4.64,6.74 2.86,12.58 -0.2,0.68 0.18,1.41 0.86,1.61zm47.07 -186.16l0.03 0c1.33,-0.04 32.68,-1.06 44.12,-16.91 4.01,-5.56 5.63,-10.92 4.8,-15.94 -1.05,-6.44 -5.77,-9.86 -5.96,-10.01 -0.59,-0.42 -1.39,-0.29 -1.81,0.3 -0.41,0.58 -0.27,1.39 0.31,1.8 0.03,0.03 4.02,2.94 4.91,8.33 0.71,4.31 -0.75,9.03 -4.35,14.01 -10.7,14.82 -41.78,15.84 -42.09,15.84 -0.71,0.02 -1.28,0.62 -1.26,1.33 0.02,0.7 0.59,1.26 1.29,1.26zm9.3 40.01c0.06,0 0.13,0.01 0.19,0.01 0.63,0 1.18,-0.46 1.27,-1.11 2.63,-18.12 -3.69,-27.27 -3.96,-27.66 -0.42,-0.59 -1.22,-0.71 -1.8,-0.31 -0.57,0.41 -0.72,1.22 -0.31,1.8 0.06,0.09 5.98,8.79 3.51,25.79 -0.11,0.71 0.38,1.36 1.09,1.47zm-348.29 322.05c-1.41,0 -2.64,0.72 -3.36,1.81 -10.19,-13.06 -27.9,-16.86 -51.52,-10.95 -18.92,4.73 -35.23,14.12 -35.39,14.22 -0.62,0.36 -0.83,1.15 -0.47,1.77 0.24,0.41 0.67,0.65 1.12,0.65 0.22,0 0.44,-0.06 0.64,-0.18 0.64,-0.37 63.55,-36.33 85.62,-1.01 0.1,0.16 0.23,0.28 0.37,0.38 0.73,0.83 1.79,1.35 2.99,1.35 2.22,0 4.02,-1.81 4.02,-4.02 0,-2.22 -1.8,-4.02 -4.02,-4.02zm42.22 39.35c-0.81,-3.06 -1.54,-6.22 -2.17,-9.36 -0.14,-0.7 -0.82,-1.16 -1.52,-1.02 -0.7,0.15 -1.16,0.82 -1.01,1.52 0.64,3.2 1.38,6.41 2.2,9.53 0.15,0.58 0.67,0.97 1.25,0.97 0.1,0 0.21,-0.02 0.32,-0.04 0.69,-0.18 1.1,-0.89 0.92,-1.59zm17.92 60.57c-0.66,0 -1.23,-0.5 -1.29,-1.17 -0.06,-0.72 0.47,-1.35 1.18,-1.41 2.78,-0.25 5.61,-0.55 8.41,-0.88 0.69,-0.09 1.35,0.42 1.43,1.14 0.09,0.7 -0.41,1.34 -1.13,1.42 -2.83,0.35 -5.68,0.64 -8.48,0.89 -0.04,0 -0.08,0 -0.12,0zm-23.06 1.17c-0.7,0 -1.29,-0.57 -1.29,-1.28 -0.01,-0.71 0.57,-1.29 1.28,-1.3 5.1,-0.05 10.32,-0.25 15.51,-0.58 0.72,-0.05 1.33,0.49 1.38,1.21 0.04,0.71 -0.49,1.32 -1.21,1.37 -5.23,0.34 -10.51,0.53 -15.65,0.59l-0.02 0zm-8.13 -0.05l-0.03 0c-13.46,-0.28 -29.28,-1.12 -44.59,-5.27 -0.7,-0.19 -1.1,-0.9 -0.91,-1.59 0.19,-0.69 0.89,-1.1 1.59,-0.91 15.03,4.08 30.66,4.91 43.97,5.18 0.71,0.01 1.28,0.6 1.27,1.32 -0.01,0.71 -0.59,1.27 -1.29,1.27zm154.64 -115.98c2.31,2.85 2.85,6.49 1.55,10.51 -0.98,3.05 -3.35,5.69 -5.88,6.59 -1.74,0.61 -3.45,0.39 -5.07,-0.69 -2.43,-1.59 -3.06,-4.68 -2.43,-6.91 0.1,-0.36 0.29,-0.88 0.65,-1.42 0.14,1.06 0.69,2.06 1.63,2.73 1.81,1.29 4.32,0.87 5.61,-0.93 1.29,-1.8 0.87,-4.32 -0.93,-5.62 -0.62,-0.44 -1.34,-0.68 -2.05,-0.72 -0.15,-0.06 -0.33,-0.08 -0.51,-0.08 -3.39,0.1 -5.97,2.1 -6.88,5.34 -1.04,3.65 0.44,7.76 3.5,9.77 2.3,1.51 4.84,1.85 7.35,0.96 3.31,-1.17 6.26,-4.41 7.49,-8.24 1.56,-4.83 0.85,-9.42 -2,-12.93 -3.23,-3.98 -8.88,-6.08 -14.78,-5.47 -12.91,1.33 -19.14,13.59 -22.72,22.69 -2.63,6.7 -4.76,13.65 -6.82,20.38 -1.85,6 -3.74,12.18 -5.98,18.13 -5.1,13.58 -13.1,25.07 -23.81,34.15 -0.55,0.47 -0.62,1.28 -0.15,1.83 0.25,0.3 0.62,0.46 0.99,0.46 0.29,0 0.59,-0.1 0.84,-0.32 11.04,-9.36 19.31,-21.21 24.56,-35.21 2.26,-6.02 4.18,-12.26 6.03,-18.28 2.05,-6.69 4.17,-13.59 6.76,-20.2 3.33,-8.48 9.07,-19.89 20.57,-21.06 5.03,-0.52 9.82,1.22 12.51,4.52zm145.05 6.22c-24.29,-5.11 -43.8,-7.59 -59.65,-7.59l-1.19 0 -0.1 1.19c-2.14,26.29 -12.98,46.93 -31.36,59.67 -19.45,13.49 -43.26,15.37 -57.15,11.41 -3.35,-0.94 -14.11,-4.77 -12.34,-13.98 0.58,-3.07 2.52,-5.58 5.04,-6.57 1.88,-0.73 3.81,-0.47 5.43,0.74 0.89,0.65 1.41,1.36 1.7,2.08 -1.74,-0.88 -3.91,-0.41 -5.08,1.24 -1.29,1.81 -0.87,4.32 0.94,5.62 1.51,1.07 3.48,0.95 4.86,-0.17 0.26,-0.09 0.51,-0.26 0.67,-0.53 2.45,-3.84 1.86,-7.8 -1.55,-10.32 -2.33,-1.73 -5.21,-2.11 -7.91,-1.06 -3.34,1.3 -5.89,4.55 -6.65,8.49 -1.74,9.03 6.18,14.68 14.18,16.95 4.29,1.22 9.48,1.91 15.19,1.91 13.54,0 29.97,-3.87 44.14,-13.69 13.12,-9.1 29.3,-26.94 32.36,-60.4 15.45,0.13 34.42,2.59 57.93,7.54 0.69,0.15 1.38,-0.3 1.53,-0.99 0.14,-0.7 -0.31,-1.39 -1,-1.53zm-284.99 52.4c-0.24,-0.67 -0.98,-1.02 -1.66,-0.78 -0.67,0.25 -1.02,0.98 -0.78,1.66 0.71,1.98 1.49,3.93 2.31,5.8 0.21,0.48 0.68,0.77 1.18,0.77 0.18,0 0.36,-0.04 0.52,-0.11 0.66,-0.3 0.95,-1.06 0.66,-1.71 -0.8,-1.82 -1.55,-3.71 -2.24,-5.63zm-5.49 -16.64c0.71,-0.11 1.18,-0.77 1.07,-1.48 -1.1,-6.86 -1.85,-13.95 -2.24,-21.08 -0.04,-0.7 -0.61,-1.22 -1.29,-1.22l-0.07 0c-0.71,0.04 -1.26,0.65 -1.22,1.36 0.39,7.21 1.15,14.39 2.27,21.35 0.1,0.63 0.65,1.08 1.27,1.08 0.07,0 0.14,0 0.21,-0.02zm53.21 59.34c-2.3,1.11 -4.11,1.89 -5.85,2.5 -0.67,0.25 -1.03,0.98 -0.78,1.66 0.19,0.53 0.69,0.85 1.22,0.85 0.14,0 0.29,-0.02 0.43,-0.07 1.82,-0.66 3.7,-1.46 6.09,-2.61 0.64,-0.31 0.91,-1.08 0.6,-1.73 -0.31,-0.65 -1.08,-0.91 -1.72,-0.61zm15.84 -9.65c-3.42,2.56 -7.06,4.94 -10.84,7.05 -0.63,0.35 -0.85,1.13 -0.5,1.75 0.24,0.43 0.68,0.67 1.12,0.67 0.21,0 0.43,-0.05 0.63,-0.16 3.88,-2.17 7.63,-4.6 11.13,-7.24 0.58,-0.43 0.69,-1.24 0.26,-1.81 -0.43,-0.57 -1.24,-0.69 -1.81,-0.25zm-186.89 48.4c-0.21,0 -0.42,-0.05 -0.61,-0.15 -7.87,-4.26 -14.51,-8.51 -20.28,-12.99 -0.56,-0.44 -0.67,-1.25 -0.23,-1.81 0.44,-0.56 1.25,-0.67 1.82,-0.23 5.66,4.39 12.18,8.57 19.92,12.76 0.62,0.34 0.87,1.12 0.53,1.74 -0.24,0.44 -0.69,0.68 -1.14,0.68zm16.62 7.69c-0.16,0 -0.31,-0.03 -0.46,-0.09 -2.98,-1.14 -6.02,-2.43 -9.06,-3.86 -0.65,-0.3 -0.93,-1.07 -0.62,-1.71 0.31,-0.64 1.07,-0.93 1.72,-0.63 2.98,1.4 5.96,2.68 8.88,3.78 0.67,0.26 1,1.01 0.75,1.68 -0.2,0.51 -0.69,0.83 -1.21,0.83zm237.4 6.69c-0.59,0 -1.1,-0.38 -1.26,-0.96 -0.18,-0.7 0.24,-1.4 0.93,-1.58 1.69,-0.44 3.38,-0.89 5.07,-1.32 0.69,-0.19 1.4,0.24 1.58,0.93 0.18,0.69 -0.24,1.4 -0.93,1.57 -1.69,0.45 -3.38,0.89 -5.06,1.33 -0.11,0.02 -0.22,0.04 -0.33,0.04zm14.58 -3.74c-0.57,0 -1.09,-0.38 -1.25,-0.96 -0.18,-0.7 0.22,-1.41 0.91,-1.59 41.24,-11.08 81.35,-17.27 119.22,-18.4 0.72,-0.02 1.31,0.54 1.34,1.25 0.02,0.72 -0.55,1.32 -1.26,1.33 -37.67,1.13 -77.58,7.29 -118.62,18.32 -0.12,0.02 -0.23,0.04 -0.34,0.04zm153.14 -18.48l-0.05 0c-8.95,-0.3 -18.1,-0.33 -27.2,-0.1l-0.03 0c-0.7,0 -1.27,-0.56 -1.28,-1.26 -0.02,-0.72 0.54,-1.31 1.26,-1.33 9.16,-0.23 18.35,-0.19 27.35,0.1 0.71,0.03 1.27,0.62 1.25,1.34 -0.03,0.7 -0.6,1.25 -1.29,1.25zm22.96 2.1c-0.06,0 -0.12,-0.01 -0.17,-0.01 -5.13,-0.68 -10.5,-1.24 -15.96,-1.64 -0.71,-0.05 -1.25,-0.68 -1.19,-1.38 0.06,-0.72 0.69,-1.25 1.38,-1.19 5.5,0.41 10.92,0.97 16.1,1.65 0.71,0.1 1.2,0.75 1.11,1.46 -0.09,0.65 -0.64,1.13 -1.28,1.13zm73.72 42.32c-0.26,0 -0.52,-0.08 -0.75,-0.24 -23.98,-16.79 -52.59,-22.74 -52.88,-22.8 -0.7,-0.14 -1.15,-0.83 -1.01,-1.52 0.15,-0.7 0.83,-1.16 1.52,-1.02 0.3,0.07 29.43,6.13 53.85,23.23 0.58,0.4 0.72,1.21 0.31,1.79 -0.25,0.36 -0.65,0.56 -1.06,0.56zm-9.31 -38.68c-0.49,0 -0.95,-0.27 -1.17,-0.74 -0.31,-0.64 -0.03,-1.42 0.62,-1.73l17.62 -8.31c0.65,-0.31 1.42,-0.04 1.72,0.61 0.3,0.64 0.03,1.42 -0.62,1.73l-17.62 8.32c-0.19,0.09 -0.37,0.12 -0.55,0.12zm-13.22 -39.65c-0.05,0 -0.09,-0 -0.14,-0.01 -0.71,-0.08 -1.22,-0.71 -1.14,-1.43l1.47 -13.21c0.08,-0.72 0.73,-1.22 1.43,-1.15 0.71,0.09 1.22,0.72 1.15,1.44l-1.48 13.22c-0.07,0.66 -0.63,1.15 -1.28,1.15z"/>
    <path class="fil3" d="M703.6 738.94c1.15,0.12 2.3,0.23 3.44,0.36 0.63,-0.76 1.1,-1.48 1.42,-2.14 0.31,-0.66 0.51,-1.3 0.56,-1.93 0.04,-0.49 0.01,-0.94 -0.08,-1.34 -0.1,-0.39 -0.28,-0.73 -0.52,-1.01 -0.25,-0.27 -0.59,-0.49 -1.01,-0.64 -0.42,-0.15 -0.92,-0.23 -1.51,-0.23 -0.33,-0.01 -0.65,-0.01 -0.97,-0.01 -0.45,2.31 -0.9,4.62 -1.35,6.93zm-22.87 -6.14c-0.33,0.03 -0.65,0.04 -0.98,0.08 -0.45,2.34 -0.89,4.69 -1.34,7.03 1.15,0.03 2.3,0.06 3.45,0.09 0.63,-0.82 1.1,-1.57 1.42,-2.26 0.32,-0.69 0.51,-1.34 0.56,-1.97 0.05,-0.5 0.02,-0.94 -0.08,-1.33 -0.1,-0.39 -0.27,-0.71 -0.53,-0.97 -0.26,-0.25 -0.59,-0.45 -1,-0.56 -0.32,-0.08 -0.67,-0.12 -1.08,-0.12 -0.14,0 -0.28,0 -0.43,0.01zm50.75 4.02c-0.07,0.14 -0.13,0.28 -0.2,0.42 -0.08,0.14 -0.18,0.28 -0.27,0.42 -0.1,0.14 -0.21,0.3 -0.33,0.46 -1.24,1.67 -2.48,3.35 -3.72,5.02 1.15,0.13 2.3,0.27 3.45,0.41 0.26,-1.7 0.53,-3.41 0.78,-5.11 0.05,-0.38 0.12,-0.74 0.19,-1.08 0.08,-0.34 0.17,-0.68 0.26,-0.99 -0.05,0.16 -0.1,0.31 -0.16,0.44zm-159.57 12.02c-0.2,0.05 -0.4,0.1 -0.6,0.16 -0.98,5.27 -1.95,10.55 -2.93,15.83 0.16,-0.04 0.31,-0.07 0.46,-0.1 0.12,-0.03 0.25,-0.05 0.38,-0.09 0.13,-0.03 0.24,-0.06 0.33,-0.08 0.56,-0.15 1.11,-0.36 1.66,-0.63 0.55,-0.28 1.07,-0.64 1.57,-1.07 0.5,-0.43 0.96,-0.96 1.4,-1.57 0.44,-0.61 0.83,-1.3 1.18,-2.11 0.35,-0.8 0.64,-1.71 0.89,-2.71 0.25,-1.01 0.43,-2.13 0.53,-3.38 0.08,-0.8 0.04,-1.51 -0.11,-2.15 -0.15,-0.63 -0.42,-1.14 -0.82,-1.53 -0.4,-0.39 -0.92,-0.65 -1.57,-0.75 -0.21,-0.04 -0.43,-0.06 -0.67,-0.06 -0.5,0 -1.07,0.08 -1.69,0.25zm22.93 0.23c-0.04,0.16 -0.1,0.33 -0.17,0.49 -0.07,0.17 -0.14,0.36 -0.22,0.53 -0.09,0.18 -0.19,0.38 -0.31,0.6 -1.07,2.17 -2.15,4.35 -3.24,6.52 1.16,-0.38 2.31,-0.75 3.47,-1.14 0.11,-1.76 0.22,-3.52 0.32,-5.28 0.02,-0.39 0.06,-0.76 0.1,-1.14 0.05,-0.36 0.11,-0.73 0.18,-1.08 -0.03,0.18 -0.06,0.35 -0.13,0.5zm-237.25 36.4c-0.33,0.02 -0.65,0.04 -0.97,0.08 -0.45,2.34 -0.89,4.69 -1.34,7.03 1.15,0.03 2.3,0.06 3.45,0.09 0.63,-0.81 1.1,-1.57 1.42,-2.26 0.32,-0.69 0.51,-1.34 0.56,-1.97 0.05,-0.5 0.02,-0.94 -0.07,-1.33 -0.1,-0.39 -0.27,-0.71 -0.53,-0.97 -0.26,-0.25 -0.59,-0.45 -0.99,-0.56 -0.32,-0.08 -0.67,-0.12 -1.08,-0.12 -0.14,0 -0.28,0 -0.43,0.01zm24.75 1.16c-0.33,0.02 -0.65,0.04 -0.97,0.08 -0.45,2.34 -0.9,4.69 -1.34,7.03 1.15,0.03 2.3,0.06 3.45,0.09 0.63,-0.82 1.1,-1.57 1.42,-2.26 0.32,-0.69 0.51,-1.34 0.56,-1.97 0.05,-0.5 0.02,-0.94 -0.08,-1.33 -0.1,-0.39 -0.27,-0.71 -0.53,-0.97 -0.26,-0.25 -0.59,-0.44 -0.99,-0.56 -0.32,-0.08 -0.67,-0.12 -1.08,-0.12 -0.14,0 -0.28,0 -0.43,0.01zm26.27 -0.48c-0.44,0.11 -0.88,0.29 -1.31,0.54 -0.43,0.24 -0.85,0.57 -1.25,0.97 -0.39,0.4 -0.77,0.88 -1.14,1.45 -0.36,0.56 -0.68,1.22 -0.97,1.95 -0.28,0.74 -0.53,1.57 -0.74,2.5 -0.21,0.92 -0.36,1.94 -0.47,3.06 -0.08,0.92 -0.09,1.72 -0.04,2.4 0.07,0.69 0.21,1.24 0.45,1.66 0.24,0.43 0.57,0.71 1.01,0.85 0.43,0.14 0.97,0.13 1.63,-0.02 0.44,-0.11 0.87,-0.29 1.31,-0.53 0.43,-0.24 0.86,-0.56 1.26,-0.95 0.4,-0.4 0.78,-0.88 1.14,-1.43 0.37,-0.55 0.69,-1.2 0.98,-1.93 0.3,-0.73 0.54,-1.56 0.76,-2.48 0.21,-0.91 0.36,-1.94 0.46,-3.07 0.09,-0.9 0.1,-1.71 0.02,-2.4 -0.05,-0.69 -0.2,-1.26 -0.44,-1.69 -0.25,-0.43 -0.58,-0.73 -1,-0.89 -0.21,-0.08 -0.44,-0.11 -0.71,-0.11 -0.28,0 -0.6,0.04 -0.95,0.13zm105.66 -17.94c-0.44,0.11 -0.88,0.28 -1.31,0.54 -0.43,0.24 -0.85,0.57 -1.25,0.97 -0.39,0.41 -0.78,0.88 -1.14,1.45 -0.36,0.56 -0.68,1.22 -0.97,1.95 -0.28,0.74 -0.53,1.57 -0.74,2.5 -0.21,0.92 -0.36,1.94 -0.46,3.06 -0.08,0.92 -0.09,1.71 -0.04,2.4 0.07,0.69 0.21,1.24 0.45,1.66 0.24,0.43 0.57,0.71 1.01,0.85 0.43,0.14 0.97,0.13 1.63,-0.02 0.44,-0.11 0.87,-0.29 1.31,-0.53 0.43,-0.24 0.86,-0.56 1.26,-0.95 0.4,-0.4 0.78,-0.88 1.14,-1.43 0.37,-0.55 0.69,-1.2 0.98,-1.93 0.3,-0.73 0.54,-1.56 0.76,-2.48 0.21,-0.92 0.36,-1.94 0.47,-3.07 0.09,-0.9 0.1,-1.7 0.03,-2.4 -0.05,-0.69 -0.2,-1.26 -0.44,-1.69 -0.25,-0.43 -0.58,-0.73 -1.01,-0.89 -0.21,-0.08 -0.44,-0.11 -0.71,-0.11 -0.28,0 -0.6,0.04 -0.95,0.13zm-81.93 16.52c-0.2,0.05 -0.4,0.09 -0.6,0.16 -0.97,5.27 -1.95,10.55 -2.93,15.83 0.16,-0.04 0.31,-0.07 0.46,-0.1 0.12,-0.03 0.25,-0.06 0.38,-0.09 0.13,-0.03 0.24,-0.05 0.33,-0.08 0.56,-0.15 1.11,-0.36 1.66,-0.63 0.54,-0.28 1.07,-0.64 1.57,-1.07 0.5,-0.43 0.96,-0.96 1.4,-1.57 0.44,-0.61 0.83,-1.3 1.18,-2.11 0.35,-0.8 0.65,-1.71 0.89,-2.72 0.25,-1.01 0.43,-2.13 0.53,-3.38 0.08,-0.8 0.04,-1.51 -0.11,-2.14 -0.15,-0.63 -0.42,-1.15 -0.82,-1.54 -0.4,-0.39 -0.92,-0.65 -1.57,-0.76 -0.21,-0.04 -0.43,-0.05 -0.67,-0.05 -0.5,0 -1.07,0.08 -1.69,0.25zm-60.76 -1.47c0.78,-0.18 1.6,-0.33 2.46,-0.47 0.86,-0.15 1.75,-0.25 2.67,-0.34 0.93,-0.09 1.89,-0.16 2.88,-0.19 0.99,-0.03 2.01,-0.03 3.07,-0.01 1.63,0.06 3.01,0.25 4.12,0.58 1.11,0.34 1.98,0.79 2.64,1.38 0.65,0.59 1.1,1.28 1.34,2.08 0.24,0.81 0.32,1.7 0.23,2.67 -0.07,0.67 -0.23,1.33 -0.52,1.99 -0.27,0.66 -0.64,1.32 -1.09,1.96 -0.45,0.64 -0.97,1.28 -1.56,1.9 -0.6,0.63 -1.24,1.24 -1.93,1.83 0.51,1.8 1.03,3.6 1.54,5.39 0.06,0.15 0.11,0.3 0.16,0.43 0.04,0.13 0.1,0.26 0.16,0.38 0.62,-0.16 1.25,-0.3 1.86,-0.46 0.2,1.01 0.39,2.03 0.59,3.04 -0.36,0.23 -0.76,0.46 -1.19,0.66 -0.45,0.2 -0.9,0.38 -1.38,0.53 -0.48,0.17 -0.95,0.28 -1.45,0.36 -0.49,0.09 -0.97,0.13 -1.42,0.11 -0.34,-0.01 -0.62,-0.03 -0.87,-0.07 -0.26,-0.04 -0.48,-0.11 -0.66,-0.22 -0.18,-0.1 -0.35,-0.24 -0.49,-0.43 -0.14,-0.18 -0.26,-0.41 -0.37,-0.72 -0.12,-0.29 -0.23,-0.63 -0.33,-1.05 -0.09,-0.41 -0.21,-0.89 -0.32,-1.46 -0.39,-1.87 -0.78,-3.72 -1.16,-5.58 -0.51,-0.08 -1.02,-0.16 -1.52,-0.24 -0.58,2.81 -1.15,5.6 -1.72,8.39 -1.9,-0.08 -3.79,-0.2 -5.68,-0.34 1.25,-6.26 2.5,-12.51 3.76,-18.78 -0.18,0 -0.4,0.03 -0.67,0.06 -0.28,0.03 -0.56,0.07 -0.86,0.11 -0.3,0.04 -0.6,0.09 -0.91,0.13 -0.3,0.05 -0.58,0.09 -0.83,0.14 -0.17,-1.25 -0.35,-2.52 -0.52,-3.78zm28.71 22.44c-1.08,-0.37 -1.97,-0.97 -2.65,-1.79 -0.69,-0.83 -1.17,-1.86 -1.45,-3.12 -0.28,-1.26 -0.34,-2.74 -0.18,-4.44 0.12,-1.33 0.36,-2.62 0.71,-3.83 0.36,-1.22 0.8,-2.36 1.36,-3.42 0.55,-1.05 1.21,-2.01 1.96,-2.89 0.75,-0.87 1.59,-1.63 2.51,-2.26 0.92,-0.64 1.93,-1.14 3.02,-1.52 1.08,-0.38 2.23,-0.6 3.45,-0.67 1.35,-0.07 2.55,0.04 3.62,0.37 1.05,0.34 1.92,0.87 2.61,1.65 0.7,0.77 1.19,1.77 1.49,3.02 0.3,1.25 0.37,2.75 0.21,4.5 -0.12,1.35 -0.36,2.65 -0.71,3.9 -0.35,1.24 -0.8,2.41 -1.36,3.5 -0.55,1.09 -1.2,2.08 -1.94,2.97 -0.75,0.9 -1.58,1.68 -2.49,2.33 -0.91,0.65 -1.9,1.17 -2.97,1.55 -1.07,0.38 -2.2,0.6 -3.4,0.65 -0.19,0.01 -0.38,0.02 -0.57,0.02 -1.21,0 -2.29,-0.16 -3.22,-0.5zm-52.56 -25.29c1.66,-0.24 3.42,-0.35 5.28,-0.34 1.86,0.01 3.79,0.14 5.78,0.38 1.53,0.2 2.81,0.51 3.83,0.95 1.04,0.45 1.85,1 2.46,1.66 0.61,0.66 1.03,1.42 1.25,2.27 0.22,0.84 0.28,1.75 0.2,2.72 -0.09,0.89 -0.26,1.72 -0.54,2.5 -0.27,0.8 -0.63,1.53 -1.08,2.18 -0.44,0.67 -0.97,1.25 -1.57,1.76 -0.6,0.51 -1.28,0.94 -2.02,1.25 -0.75,0.33 -1.55,0.55 -2.43,0.67 -0.88,0.12 -1.8,0.11 -2.77,-0.01 -0.18,-0.03 -0.38,-0.07 -0.6,-0.11 -0.21,-0.04 -0.4,-0.09 -0.57,-0.13 -0.51,2.42 -1.03,4.84 -1.56,7.26 -1.88,-0.27 -3.77,-0.57 -5.65,-0.89 1.25,-6.13 2.5,-12.26 3.76,-18.42l-0.65 0c-0.27,0 -0.56,0 -0.86,0.02 -0.3,0.01 -0.61,0.02 -0.92,0.04 -0.3,0.02 -0.58,0.04 -0.84,0.05 -0.17,-1.27 -0.34,-2.55 -0.51,-3.83zm75.14 1.98c0.95,-0.37 1.88,-0.71 2.79,-0.99 0.92,-0.29 1.83,-0.56 2.74,-0.78 0.89,-0.22 1.79,-0.42 2.68,-0.58 0.89,-0.16 1.78,-0.29 2.67,-0.4 1.77,-0.22 3.33,-0.2 4.64,0.05 1.32,0.26 2.4,0.74 3.25,1.45 0.85,0.7 1.46,1.64 1.82,2.77 0.36,1.14 0.48,2.48 0.34,4.01 -0.15,1.59 -0.43,3.06 -0.84,4.43 -0.41,1.37 -0.93,2.63 -1.57,3.75 -0.64,1.14 -1.38,2.15 -2.22,3.05 -0.83,0.89 -1.75,1.67 -2.74,2.33 -0.99,0.64 -2.06,1.17 -3.19,1.57 -1.13,0.4 -2.31,0.67 -3.53,0.81 -1.28,0.14 -2.48,0.25 -3.6,0.31 -1.12,0.07 -2.17,0.1 -3.16,0.09 1.24,-6.38 2.48,-12.76 3.72,-19.15 -0.18,0.04 -0.4,0.09 -0.68,0.16 -0.27,0.08 -0.56,0.16 -0.86,0.25 -0.3,0.09 -0.61,0.18 -0.91,0.29 -0.31,0.1 -0.58,0.18 -0.83,0.26 -0.18,-1.22 -0.35,-2.45 -0.52,-3.68zm34.6 12.11c0.19,-0.04 0.39,-0.1 0.6,-0.2 0.21,-0.09 0.44,-0.24 0.69,-0.43 0.25,-0.18 0.53,-0.43 0.84,-0.73 0.3,-0.3 0.65,-0.66 1.05,-1.09 0.4,-0.44 0.83,-0.94 1.33,-1.52 0.49,-0.58 1.05,-1.25 1.66,-2.02 0.89,-4.58 1.79,-9.15 2.69,-13.72 1.87,-0.46 3.74,-0.93 5.61,-1.41 -1.19,6.18 -2.38,12.36 -3.57,18.53 -0.05,0.23 -0.09,0.46 -0.12,0.66 -0.03,0.2 -0.06,0.39 -0.08,0.53 -0.03,0.19 -0.05,0.35 -0.06,0.5 0.77,-0.29 1.55,-0.59 2.32,-0.89 0.12,1.07 0.24,2.13 0.37,3.19 -0.18,0.15 -0.39,0.3 -0.65,0.48 -0.27,0.18 -0.56,0.37 -0.89,0.56 -0.34,0.2 -0.69,0.39 -1.08,0.59 -0.39,0.19 -0.78,0.36 -1.17,0.53 -0.4,0.16 -0.81,0.31 -1.2,0.44 -0.4,0.13 -0.78,0.23 -1.16,0.31 -0.55,0.1 -1.01,0.13 -1.36,0.1 -0.36,-0.04 -0.64,-0.15 -0.84,-0.32 -0.19,-0.16 -0.33,-0.4 -0.39,-0.7 -0.06,-0.3 -0.07,-0.65 -0.03,-1.07 0.01,-0.15 0.04,-0.35 0.08,-0.58 0.05,-0.23 0.1,-0.49 0.16,-0.76 0.06,-0.28 0.13,-0.55 0.2,-0.83 0.07,-0.28 0.15,-0.54 0.22,-0.79 -0.68,0.86 -1.29,1.63 -1.85,2.29 -0.56,0.65 -1.08,1.23 -1.55,1.71 -0.48,0.48 -0.93,0.88 -1.35,1.21 -0.42,0.33 -0.83,0.6 -1.22,0.81 -0.4,0.22 -0.78,0.39 -1.17,0.51 -0.38,0.13 -0.78,0.22 -1.2,0.29 -0.78,0.13 -1.45,0.15 -2.01,0.04 -0.56,-0.1 -1.01,-0.33 -1.35,-0.69 -0.34,-0.34 -0.58,-0.84 -0.71,-1.45 -0.13,-0.62 -0.15,-1.38 -0.07,-2.28 0.01,-0.17 0.04,-0.4 0.08,-0.72 0.04,-0.32 0.09,-0.67 0.15,-1.05 0.06,-0.4 0.13,-0.81 0.2,-1.24 0.08,-0.45 0.17,-0.89 0.26,-1.3 0.86,-3.68 1.72,-7.35 2.58,-11.03 -1,0.2 -2.01,0.4 -3.02,0.6 0.06,-1.22 0.11,-2.44 0.17,-3.66 0.77,-0.23 1.52,-0.44 2.22,-0.62 0.71,-0.2 1.43,-0.37 2.17,-0.53 0.73,-0.16 1.49,-0.34 2.28,-0.48 0.79,-0.16 1.65,-0.32 2.58,-0.49 -1,4.58 -1.99,9.17 -2.99,13.74 -0.09,0.41 -0.17,0.79 -0.24,1.18 -0.07,0.37 -0.13,0.72 -0.18,1.03 -0.05,0.32 -0.1,0.59 -0.13,0.85 -0.03,0.26 -0.06,0.45 -0.08,0.59 -0.04,0.56 0.04,0.95 0.26,1.16 0.17,0.16 0.38,0.24 0.65,0.24 0.1,0 0.18,-0.01 0.29,-0.03zm19.41 -14.54c-0.07,-0.71 -0.07,-1.4 -0,-2.06 0.04,-0.52 0.16,-1.02 0.34,-1.53 0.18,-0.51 0.42,-1 0.73,-1.48 0.31,-0.47 0.67,-0.92 1.1,-1.35 0.43,-0.43 0.91,-0.83 1.44,-1.18 0.54,-0.36 1.13,-0.68 1.76,-0.95 0.64,-0.28 1.33,-0.49 2.05,-0.66 0.92,-0.2 1.85,-0.37 2.81,-0.52 0.96,-0.15 1.94,-0.29 2.93,-0.43 0.99,-0.15 1.98,-0.3 2.99,-0.46 0.99,-0.16 1.99,-0.36 2.99,-0.59 0.16,-0.04 0.36,-0.09 0.57,-0.14 0.23,-0.06 0.47,-0.13 0.72,-0.2 0.25,-0.07 0.52,-0.14 0.78,-0.22 0.27,-0.08 0.53,-0.15 0.77,-0.22 0.25,-0.08 0.49,-0.15 0.71,-0.23 0.22,-0.07 0.39,-0.14 0.55,-0.19 -0.04,1.32 -0.08,2.64 -0.14,3.97 -0.42,0.31 -0.98,0.61 -1.71,0.9 -0.72,0.29 -1.58,0.55 -2.59,0.8 -0.3,0.06 -0.56,0.12 -0.81,0.18 -0.24,0.06 -0.47,0.1 -0.69,0.13 -0.23,0.05 -0.45,0.08 -0.67,0.1 -0.23,0.04 -0.46,0.06 -0.72,0.09 -0.99,5.22 -1.97,10.44 -2.96,15.66 1.32,-0.24 2.64,-0.47 3.96,-0.71 -0.23,1.25 -0.46,2.49 -0.69,3.74 -4.34,1 -8.68,1.97 -13.02,2.91 0.22,-1.14 0.44,-2.29 0.67,-3.41 1.14,-0.38 2.27,-0.76 3.39,-1.15 1,-5.42 1.99,-10.84 2.99,-16.27 -0.31,0.03 -0.61,0.07 -0.94,0.13 -0.27,0.03 -0.57,0.08 -0.88,0.14 -0.32,0.05 -0.62,0.12 -0.9,0.18 -0.52,0.12 -0.96,0.26 -1.31,0.44 -0.36,0.18 -0.66,0.44 -0.9,0.77 -0.24,0.32 -0.43,0.75 -0.55,1.27 -0.14,0.52 -0.24,1.15 -0.32,1.94 -0.01,0.23 -0.04,0.5 -0.07,0.8 -0.02,0.31 -0.02,0.61 -0.02,0.89 -1.28,0.38 -2.56,0.75 -3.84,1.11 -0.28,-0.74 -0.45,-1.46 -0.5,-2.16zm29.79 8.94c-1.08,-0.14 -1.97,-0.55 -2.65,-1.21 -0.69,-0.66 -1.17,-1.6 -1.44,-2.8 -0.28,-1.2 -0.34,-2.66 -0.18,-4.41 0.12,-1.36 0.36,-2.69 0.71,-3.99 0.35,-1.31 0.8,-2.54 1.36,-3.73 0.55,-1.18 1.21,-2.29 1.95,-3.32 0.76,-1.04 1.6,-1.97 2.52,-2.8 0.92,-0.83 1.93,-1.54 3.01,-2.14 1.08,-0.6 2.23,-1.06 3.45,-1.37 1.36,-0.35 2.57,-0.45 3.62,-0.31 1.05,0.12 1.92,0.51 2.62,1.15 0.69,0.65 1.18,1.57 1.48,2.75 0.3,1.19 0.37,2.68 0.22,4.46 -0.13,1.38 -0.37,2.72 -0.72,4.02 -0.35,1.32 -0.8,2.55 -1.35,3.75 -0.55,1.19 -1.2,2.3 -1.95,3.34 -0.74,1.04 -1.58,1.97 -2.49,2.8 -0.91,0.83 -1.91,1.55 -2.97,2.13 -1.06,0.6 -2.2,1.04 -3.39,1.35 -1.04,0.26 -1.99,0.39 -2.84,0.39 -0.33,0 -0.65,-0.03 -0.95,-0.07zm27.47 -11.15c0.47,-0.02 0.91,-0.08 1.33,-0.19 0.37,-0.09 0.69,-0.23 0.96,-0.41 0.27,-0.17 0.5,-0.36 0.69,-0.58 0.2,-0.23 0.34,-0.46 0.44,-0.73 0.1,-0.25 0.17,-0.52 0.19,-0.79 0.02,-0.21 0.01,-0.43 -0.04,-0.66 -0.04,-0.23 -0.16,-0.47 -0.35,-0.75 -0.18,-0.27 -0.46,-0.58 -0.81,-0.93 -0.36,-0.33 -0.83,-0.73 -1.42,-1.18 -0.67,-0.51 -1.21,-1 -1.63,-1.46 -0.43,-0.48 -0.76,-0.95 -1,-1.43 -0.24,-0.49 -0.38,-0.99 -0.45,-1.52 -0.07,-0.53 -0.07,-1.11 -0.02,-1.75 0.09,-0.92 0.33,-1.83 0.74,-2.71 0.39,-0.89 0.95,-1.71 1.65,-2.47 0.7,-0.76 1.55,-1.45 2.54,-2.04 0.99,-0.59 2.13,-1.05 3.39,-1.39 0.54,-0.14 1.05,-0.24 1.53,-0.33 0.48,-0.07 0.96,-0.12 1.42,-0.12 0.46,-0.01 0.94,0.02 1.4,0.09 0.46,0.06 0.94,0.17 1.44,0.3 -0.59,1.51 -1.17,3.02 -1.75,4.54 -0.88,-0.16 -1.71,-0.21 -2.46,-0.16 -0.76,0.05 -1.47,0.16 -2.12,0.33 -0.65,0.17 -1.16,0.46 -1.52,0.83 -0.35,0.38 -0.56,0.82 -0.6,1.29 -0.02,0.19 -0.02,0.39 0.01,0.58 0.02,0.19 0.09,0.39 0.22,0.61 0.13,0.21 0.32,0.46 0.59,0.74 0.26,0.27 0.63,0.59 1.1,0.97 0.58,0.46 1.09,0.9 1.52,1.3 0.42,0.41 0.79,0.8 1.08,1.17 0.3,0.37 0.53,0.74 0.71,1.08 0.18,0.35 0.32,0.69 0.41,1.03 0.09,0.34 0.14,0.69 0.15,1.03 0.02,0.34 0.01,0.71 -0.02,1.08 -0.09,1.06 -0.38,2.06 -0.84,3.03 -0.47,0.97 -1.09,1.86 -1.86,2.67 -0.79,0.81 -1.69,1.51 -2.75,2.11 -1.06,0.61 -2.22,1.08 -3.51,1.42 -0.68,0.18 -1.36,0.29 -2.04,0.35 -0.69,0.06 -1.36,0.05 -2.01,-0.02 -0.65,-0.08 -1.27,-0.21 -1.87,-0.4 -0.59,-0.2 -1.15,-0.46 -1.67,-0.79 0.87,-1.55 1.72,-3.09 2.58,-4.64 0.53,0.21 1.07,0.39 1.6,0.53 0.53,0.14 1.07,0.24 1.58,0.3 0.38,0.05 0.76,0.08 1.12,0.08 0.13,0 0.25,-0.01 0.37,-0.01zm27.62 -29.15c0.94,-0.54 1.87,-1.02 2.8,-1.45 0.92,-0.44 1.82,-0.84 2.73,-1.2 0.9,-0.35 1.8,-0.68 2.69,-0.97 0.89,-0.28 1.78,-0.53 2.66,-0.76 1.78,-0.45 3.32,-0.64 4.64,-0.53 1.32,0.1 2.4,0.47 3.25,1.08 0.85,0.62 1.45,1.48 1.81,2.58 0.37,1.11 0.48,2.42 0.34,3.97 -0.14,1.6 -0.42,3.11 -0.83,4.52 -0.41,1.42 -0.93,2.72 -1.58,3.93 -0.63,1.21 -1.38,2.31 -2.21,3.31 -0.84,0.98 -1.76,1.87 -2.75,2.65 -0.99,0.78 -2.05,1.44 -3.18,2 -1.13,0.55 -2.31,0.98 -3.53,1.29 -1.27,0.33 -2.47,0.62 -3.59,0.86 -1.12,0.24 -2.18,0.45 -3.16,0.6 1.23,-6.59 2.47,-13.16 3.7,-19.75 -0.17,0.06 -0.39,0.15 -0.67,0.27 -0.27,0.12 -0.56,0.24 -0.86,0.38 -0.3,0.14 -0.6,0.28 -0.92,0.43 -0.3,0.15 -0.58,0.28 -0.83,0.41 -0.18,-1.21 -0.35,-2.4 -0.52,-3.6zm15.31 23.42c-0.28,-0.01 -0.53,-0.03 -0.74,-0.08 0.31,-1.37 0.62,-2.72 0.92,-4.08 0.46,-0.03 0.91,-0.09 1.33,-0.17 0.43,-0.08 0.85,-0.2 1.25,-0.33 0.24,-0.08 0.49,-0.19 0.71,-0.33 0.22,-0.14 0.46,-0.33 0.71,-0.57 0.24,-0.24 0.51,-0.55 0.79,-0.94 0.27,-0.37 0.59,-0.84 0.95,-1.41 0.36,-0.57 0.76,-1.24 1.21,-2.03 0.45,-0.79 0.97,-1.71 1.54,-2.77 3.23,-5.89 6.45,-11.77 9.68,-17.63 1.65,-0.61 3.31,-1.21 4.97,-1.79 -0.21,6.53 -0.42,13.07 -0.63,19.6 0.16,-0.07 0.34,-0.15 0.55,-0.25 0.22,-0.11 0.44,-0.21 0.65,-0.32 0.22,-0.12 0.44,-0.23 0.64,-0.34 0.21,-0.11 0.39,-0.2 0.54,-0.29 0.23,0.95 0.43,1.9 0.66,2.85 -0.27,0.27 -0.63,0.57 -1.08,0.9 -0.44,0.33 -0.95,0.66 -1.5,0.99 -0.56,0.34 -1.14,0.65 -1.76,0.95 -0.61,0.29 -1.24,0.54 -1.85,0.74 -0.58,0.19 -1.05,0.29 -1.38,0.29 -0.35,0 -0.62,-0.07 -0.8,-0.21 -0.19,-0.14 -0.31,-0.36 -0.37,-0.64 -0.05,-0.27 -0.08,-0.6 -0.08,-0.98 0,-0.12 0,-0.27 0.01,-0.43 0,-0.16 0.02,-0.32 0.03,-0.51 0.01,-0.18 0.01,-0.36 0.03,-0.55 0,-0.18 0.01,-0.37 0.02,-0.55 0.03,-0.43 0.05,-0.86 0.09,-1.31 -1.8,0.58 -3.6,1.18 -5.4,1.78 -0.1,0.2 -0.21,0.4 -0.32,0.61 -0.53,0.99 -1.03,1.87 -1.5,2.67 -0.46,0.78 -0.91,1.49 -1.34,2.11 -0.43,0.63 -0.84,1.18 -1.27,1.64 -0.42,0.47 -0.85,0.89 -1.31,1.25 -0.46,0.36 -0.95,0.67 -1.47,0.94 -0.53,0.27 -1.1,0.52 -1.74,0.73 -0.31,0.11 -0.63,0.19 -0.94,0.27 -0.32,0.07 -0.64,0.13 -0.94,0.17 -0.25,0.03 -0.49,0.04 -0.72,0.04l-0.14 0zm41.88 -26.9c-0.06,-0.71 -0.06,-1.4 0,-2.05 0.05,-0.51 0.16,-1.02 0.35,-1.53 0.18,-0.51 0.43,-1 0.73,-1.47 0.31,-0.47 0.67,-0.93 1.11,-1.35 0.42,-0.42 0.91,-0.81 1.44,-1.17 0.54,-0.35 1.12,-0.65 1.76,-0.91 0.63,-0.26 1.32,-0.46 2.05,-0.61 0.91,-0.17 1.85,-0.33 2.81,-0.44 0.96,-0.1 1.94,-0.21 2.92,-0.32 1,-0.1 1.99,-0.2 2.99,-0.31 1,-0.11 2,-0.25 2.99,-0.43 0.16,-0.03 0.36,-0.06 0.59,-0.11 0.22,-0.05 0.45,-0.09 0.71,-0.15 0.25,-0.05 0.51,-0.11 0.77,-0.17 0.27,-0.05 0.53,-0.12 0.78,-0.18 0.25,-0.06 0.48,-0.12 0.7,-0.17 0.22,-0.06 0.41,-0.12 0.56,-0.16 -0.04,1.32 -0.1,2.65 -0.14,3.97 -0.42,0.27 -0.99,0.52 -1.71,0.76 -0.72,0.24 -1.59,0.46 -2.6,0.63 -0.3,0.05 -0.56,0.1 -0.8,0.14 -0.24,0.03 -0.47,0.06 -0.7,0.1 -0.22,0.02 -0.44,0.04 -0.67,0.07 -0.23,0 -0.46,0.02 -0.72,0.04 -0.98,5.16 -1.97,10.34 -2.96,15.51 1.32,-0.18 2.65,-0.36 3.97,-0.52 -0.23,1.23 -0.47,2.46 -0.71,3.69 -4.33,0.79 -8.67,1.62 -13,2.5 0.21,-1.14 0.44,-2.28 0.66,-3.41 1.12,-0.36 2.26,-0.72 3.39,-1.07 1,-5.4 1.98,-10.79 2.98,-16.18 -0.31,0.02 -0.61,0.05 -0.93,0.09 -0.28,0.03 -0.58,0.07 -0.89,0.11 -0.32,0.04 -0.61,0.09 -0.9,0.15 -0.52,0.1 -0.95,0.24 -1.31,0.41 -0.37,0.16 -0.66,0.42 -0.9,0.74 -0.24,0.33 -0.43,0.74 -0.56,1.25 -0.15,0.52 -0.25,1.17 -0.32,1.95 -0.02,0.22 -0.04,0.49 -0.06,0.79 -0.02,0.3 -0.03,0.6 -0.02,0.9 -1.28,0.34 -2.57,0.71 -3.84,1.07 -0.28,-0.74 -0.45,-1.46 -0.51,-2.17zm27.38 -12.06c0.25,-0.07 0.57,-0.15 0.94,-0.24 0.38,-0.09 0.8,-0.18 1.25,-0.28 0.45,-0.09 0.92,-0.19 1.41,-0.29 0.5,-0.09 0.99,-0.18 1.48,-0.27 0.49,-0.09 0.96,-0.16 1.42,-0.24 0.45,-0.08 0.86,-0.13 1.22,-0.19 3.37,-0.46 6.72,-0.89 10.07,-1.28 -0.29,1.41 -0.58,2.83 -0.88,4.24 -2.56,0.3 -5.13,0.62 -7.69,0.97 -0.36,1.92 -0.73,3.86 -1.09,5.78 1.95,-0.27 3.89,-0.52 5.85,-0.76 -0.27,1.38 -0.54,2.77 -0.82,4.16 -1.94,0.24 -3.87,0.5 -5.81,0.78 -0.33,1.8 -0.66,3.61 -0.99,5.42 0.3,-0.05 0.63,-0.09 0.99,-0.13 0.37,-0.04 0.74,-0.09 1.14,-0.13 0.39,-0.05 0.78,-0.08 1.17,-0.12 0.39,-0.03 0.77,-0.07 1.11,-0.11 0.36,-0.04 0.68,-0.07 0.97,-0.1 0.3,-0.03 0.54,-0.06 0.73,-0.08 0.09,-0.14 0.19,-0.33 0.33,-0.57 0.12,-0.24 0.24,-0.49 0.37,-0.76 0.14,-0.26 0.26,-0.53 0.37,-0.79 0.12,-0.27 0.23,-0.5 0.31,-0.69 1.21,0.18 2.44,0.36 3.65,0.55 -0.28,0.8 -0.55,1.51 -0.81,2.13 -0.25,0.62 -0.52,1.17 -0.8,1.63 -0.27,0.45 -0.56,0.85 -0.87,1.19 -0.31,0.33 -0.66,0.6 -1.04,0.83 -0.39,0.22 -0.82,0.4 -1.3,0.54 -0.48,0.13 -1.03,0.24 -1.64,0.32 -0.44,0.05 -0.87,0.11 -1.27,0.16 -0.41,0.04 -0.85,0.1 -1.31,0.15 -0.46,0.06 -0.97,0.12 -1.52,0.19 -0.56,0.06 -1.2,0.16 -1.95,0.27 -2.66,0.38 -5.31,0.8 -7.97,1.22 0.24,-1.29 0.48,-2.57 0.71,-3.86 0.94,-0.28 1.87,-0.56 2.81,-0.84 1,-5.22 2.01,-10.43 3.01,-15.64 -0.67,0.09 -1.32,0.21 -1.94,0.32 -0.61,0.11 -1.22,0.22 -1.81,0.36 0.06,-1.29 0.13,-2.58 0.19,-3.87zm23.9 -2.16c0.77,-0.31 1.6,-0.6 2.45,-0.87 0.86,-0.27 1.75,-0.52 2.67,-0.73 0.93,-0.22 1.89,-0.41 2.88,-0.56 0.99,-0.15 2.02,-0.26 3.06,-0.33 1.64,-0.11 3.02,-0.04 4.12,0.21 1.11,0.26 1.98,0.66 2.64,1.21 0.65,0.54 1.1,1.21 1.35,2.01 0.23,0.79 0.32,1.68 0.22,2.66 -0.06,0.67 -0.23,1.35 -0.51,2.02 -0.28,0.67 -0.65,1.34 -1.09,2.01 -0.45,0.67 -0.97,1.34 -1.56,2.01 -0.6,0.66 -1.24,1.32 -1.93,1.96 0.52,1.76 1.03,3.52 1.55,5.28 0.06,0.14 0.1,0.29 0.15,0.42 0.05,0.13 0.11,0.25 0.18,0.36 0.62,-0.18 1.23,-0.37 1.85,-0.56 0.19,1 0.39,2.01 0.59,3 -0.37,0.25 -0.75,0.5 -1.19,0.73 -0.44,0.24 -0.9,0.44 -1.38,0.63 -0.47,0.18 -0.96,0.33 -1.45,0.45 -0.5,0.13 -0.97,0.2 -1.42,0.22 -0.33,0.03 -0.63,0.03 -0.88,0 -0.25,-0.01 -0.46,-0.07 -0.65,-0.15 -0.2,-0.09 -0.35,-0.22 -0.5,-0.39 -0.14,-0.17 -0.26,-0.38 -0.37,-0.67 -0.12,-0.28 -0.23,-0.61 -0.32,-1.02 -0.11,-0.4 -0.22,-0.88 -0.33,-1.43 -0.39,-1.82 -0.78,-3.64 -1.16,-5.46 -0.51,-0.01 -1.02,-0.03 -1.53,-0.05 -0.57,2.88 -1.15,5.74 -1.72,8.61 -1.89,0.16 -3.79,0.33 -5.69,0.52 1.25,-6.46 2.51,-12.91 3.77,-19.37 -0.18,0.03 -0.41,0.08 -0.67,0.15 -0.27,0.07 -0.56,0.15 -0.86,0.24 -0.31,0.08 -0.61,0.19 -0.92,0.28 -0.3,0.09 -0.58,0.18 -0.84,0.26 -0.17,-1.22 -0.35,-2.45 -0.51,-3.69zm25.18 -1.59c0.78,-0.25 1.59,-0.48 2.45,-0.69 0.85,-0.2 1.75,-0.38 2.68,-0.52 0.93,-0.14 1.89,-0.26 2.88,-0.33 0.99,-0.07 2.01,-0.11 3.07,-0.1 1.62,0.02 3.01,0.21 4.11,0.56 1.11,0.35 1.99,0.83 2.64,1.42 0.65,0.6 1.1,1.31 1.34,2.13 0.24,0.81 0.32,1.71 0.23,2.68 -0.06,0.66 -0.24,1.32 -0.51,1.97 -0.27,0.65 -0.64,1.29 -1.09,1.92 -0.45,0.63 -0.98,1.26 -1.57,1.87 -0.6,0.62 -1.24,1.22 -1.93,1.81 0.52,1.79 1.04,2.94 1.56,4.74 0.05,0.16 0.11,0.29 0.16,0.43 0.03,0.14 0.1,0.26 0.17,0.39 0.49,1.45 2.67,1.05 3.9,1.01l0 0c0.26,-0.02 0.49,-0.05 0.59,-0.07 0.22,-0.04 0.47,-0.13 0.73,-0.27 0.25,-0.15 0.53,-0.34 0.83,-0.61 0.31,-0.25 0.66,-0.6 1.05,-1.01 0.39,-0.42 0.84,-0.93 1.35,-1.52 0.51,-0.59 1.09,-1.29 1.74,-2.1 3.64,-4.51 7.27,-8.93 10.91,-13.27 1.66,0.16 3.31,0.34 4.96,0.53 -0.77,6.37 -1.55,12.75 -2.33,19.13 0.16,0 0.34,0 0.56,0 0.21,0 0.43,-0 0.65,-0.02 0.23,-0 0.44,-0.02 0.65,-0.03 0.21,-0.01 0.4,-0.01 0.56,-0.02 0.12,1.04 0.25,2.08 0.39,3.13 -0.3,0.14 -0.66,0.27 -1.13,0.39 -0.46,0.11 -0.98,0.21 -1.54,0.28 -0.57,0.07 -1.16,0.12 -1.79,0.12 -0.63,0.01 -1.25,-0.02 -1.85,-0.11 -0.58,-0.07 -1.04,-0.19 -1.38,-0.33 -0.33,-0.15 -0.58,-0.34 -0.75,-0.56 -0.17,-0.22 -0.27,-0.49 -0.3,-0.79 -0.03,-0.3 -0.03,-0.64 0,-1.02 0.01,-0.12 0.02,-0.27 0.05,-0.41 0.01,-0.16 0.04,-0.33 0.06,-0.5 0.03,-0.18 0.05,-0.36 0.08,-0.54 0.03,-0.18 0.05,-0.37 0.08,-0.53 0.07,-0.41 0.13,-0.83 0.2,-1.27 -1.79,-0.22 -3.58,-0.43 -5.38,-0.61 -0.12,0.15 -0.23,0.32 -0.34,0.46 -0.61,0.76 -1.17,1.43 -1.69,2.02 -0.52,0.58 -1.02,1.11 -1.48,1.54 -0.46,0.43 -0.92,0.81 -1.38,1.1 -0.44,0.29 -0.9,0.53 -1.38,0.69 -0.47,0.17 -0.98,0.28 -1.5,0.34 -0.21,0.01 -0.44,0.03 -0.67,0.03 -0.01,0 -0.05,0 -0.11,0 -0.04,0 -0.08,0 -0.13,0 -1.08,0 -5.67,-0.12 -7.94,-0.34l0.01 -0.01c-0.06,-0.01 -0.13,-0.01 -0.18,-0.01 -0.25,-0.04 -0.47,-0.11 -0.66,-0.22 -0.19,-0.1 -0.36,-0.24 -0.49,-0.42 -0.14,-0.18 -0.27,-0.41 -0.39,-0.7 -0.11,-0.29 -0.22,-0.64 -0.32,-1.05 -0.1,-0.42 -0.21,-0.9 -0.33,-1.47 -0.39,-1.85 -0.78,-3.69 -1.16,-5.54 -0.51,-0.06 -1.02,-0.11 -1.51,-0.17 -0.58,2.83 -1.15,5.65 -1.72,8.48 -1.9,0.01 -3.8,0.04 -5.69,0.09 1.27,-6.37 2.51,-12.73 3.76,-19.09 -0.18,0.02 -0.4,0.05 -0.67,0.11 -0.27,0.04 -0.56,0.1 -0.87,0.17 -0.3,0.06 -0.6,0.13 -0.91,0.2 -0.3,0.08 -0.58,0.15 -0.83,0.22 -0.17,-1.24 -0.35,-2.49 -0.51,-3.73z"/>
   </g>
   <g>
    <rect class="fil4" x="-0" y="37.27" width="950.34" height="3.42"/>
    <rect class="fil4" x="957.8" y="37.27" width="48.76" height="3.42"/>
    <rect class="fil4" x="-0" y="49.67" width="923.68" height="3.42"/>
    <rect class="fil4" x="930.6" y="49.67" width="75.97" height="3.42"/>
   </g>
   <g>
    <rect class="fil4" x="56.23" y="938.85" width="950.34" height="3.42"/>
    <rect class="fil4" x="0" y="938.85" width="48.76" height="3.42"/>
    <rect class="fil4" x="82.89" y="951.25" width="923.68" height="3.42"/>
    <rect class="fil4" x="0" y="951.25" width="75.97" height="3.42"/>
   </g>
  </g>
 </g>
</svg>
